<svg id="Layer_1" data-name="Layer 1" xmlns="http://www.w3.org/2000/svg" xmlns:xlink="http://www.w3.org/1999/xlink" viewBox="0 0 1276.6 801.92"><defs><style>.cls-1{fill:#f9e2af;}.cls-2{fill:#fff;}.cls-3{fill:#aab7c4;}.cls-4{fill:#262c33;}.cls-5{fill:#84888c;}.cls-6{fill:#face5f;}.cls-7{fill:#adc5e7;}.cls-8{fill:#253866;}.cls-9{fill:#94abd9;}.cls-10,.cls-11,.cls-12,.cls-13{fill:none;stroke-miterlimit:10;}.cls-10,.cls-11,.cls-12{stroke:#231f20;}.cls-10,.cls-11{stroke-width:2px;}.cls-11,.cls-12{stroke-linecap:round;}.cls-12{stroke-width:3px;}.cls-13{stroke:#fff;stroke-width:5px;}</style></defs><path class="cls-1" d="M1060,106.68a94.58,94.58,0,0,1,20.24-5.43l-3.18-10.38c-.15-.48-.37-1-.87-1.16a1.55,1.55,0,0,0-.79.1L1065.53,93c-2.74.88-5.91.76-8.36,1.53C1057.7,98.61,1059,102.7,1060,106.68Zm-52,1.72c-19,3.67-29.75,25.59-26.84,43,1,5.78,2.6,11.52,5.67,16.42,8.44,13.48,27.24,17.46,41,10.27s24.36-23.87,21.85-39.79C1046.45,118,1025.33,105.06,1008,108.4Zm-42.2,39.48c-4.48-20.65-8.24-37.38-8.24-37.38l8.3-2.27c6.31-1.71,12.14-3.25,17.72-4.67,29.8-7.64,52.2-12.06,99.26-21.68.59,7.51,1.18,11.77,1.77,19.28a111.29,111.29,0,0,0-10,8.5c-.87.87-8.22,7.78-10.58,11.07a3.82,3.82,0,0,0,4.67,5.7c5.51-2.43,19.41-10.89,24.39-14.32-10.84,10.36-24.27,21.58-34.9,33-1.37,1.47-3,3.45-1.61,5.2,1,1.16,2.73,1.12,4.11.52,6.45-2.78,27.87-20.33,38-27.14-5.57,5.51-13.46,13.72-19,19.23-2.14,2.12-5.53,5.21-6.53,8.27a2.37,2.37,0,0,0,2,3.12c3.81.51,8.2-2.61,11.53-5,2.66-1.93,5.81-4.46,9-7l.16.21a7.19,7.19,0,0,1,.94,4.06l.16.15c-3.59,3.91-7.06,7.94-10.42,12.2a2,2,0,0,0,2.27,3.13,6.73,6.73,0,0,0,1.44-.62,96.85,96.85,0,0,0,10-6.55c-.21,3.22,2.45,11.8,2.52,13.5-10.79,3.06-21.33,6-31.75,8.87-28.38,7.81-55.91,15-85.19,22.22h0L977,201.55C974,186.13,969.62,165.57,965.79,147.88Z"/><path class="cls-2" d="M1058.21,145.06c10.63-11.37,24.06-22.59,34.9-32.95-5,3.43-18.88,11.89-24.39,14.32a3.82,3.82,0,0,1-4.67-5.7c2.36-3.29,9.71-10.2,10.58-11.07a111.29,111.29,0,0,1,10-8.5c1.63-1.27,3.22-2.52,4.72-3.73,3.13-2.53,6.6-3.52,10.37-.69,4.59,3.44,5.1,6.06,2.11,9.12a.13.13,0,0,0,.16.21c2-1.16,3.51-2.29,6-2.75,3.55-.67,6.4,3.42,7.19,5.58s-.63,4.19-3.44,7a.93.93,0,0,0,.65,1.58,8.14,8.14,0,0,1,6.5,3.06c1.71,2.3-1.87,6.19-4.24,8.69a.35.35,0,0,0,.41.56c4.5-2,8.75.15,6.37,5.39-1.21,2.67-5.7,7-7.94,8.91-4.33,3.67-8.68,7.36-13.24,10.73a96.85,96.85,0,0,1-10,6.55,6.73,6.73,0,0,1-1.44.62,2,2,0,0,1-2.27-3.13c3.36-4.26,6.83-8.29,10.42-12.2,3-3.35,6.2-6.61,9.43-9.86a1.16,1.16,0,0,0-1.5-1.76c-2.8,2-6,4.63-9.19,7.2s-6.32,5.09-9,7c-3.33,2.41-7.72,5.53-11.53,5a2.37,2.37,0,0,1-2-3.12c1-3.06,4.39-6.15,6.53-8.27,5.56-5.51,13.45-13.72,19-19.23-10.16,6.81-31.58,24.36-38,27.14-1.38.6-3.15.64-4.11-.52C1055.17,148.51,1056.84,146.53,1058.21,145.06Z"/><path class="cls-2" d="M1046.68,523.49c2.78-17.94,8-35.72,11.2-53.58.46-2.53,1.54-5.26,4-5.77,1.25-.26,2.68-.78,2.71,1.81.08,6.6-2.92,25.86-4.68,40.61,2.73-10.07,4.47-20.39,7.39-30.4,2.19-7.49,2.77-18.1,5.55-23.1a2.07,2.07,0,0,1,3.87,1.11c-.49,9.31-1.14,20.09-2.41,30.26-.78,4.68-1.53,9.38-2.32,14.11,1-4.4,1.71-9.18,2.32-14.11,1.83-11.08,3.8-22,6.7-32.78A36.7,36.7,0,0,1,1083,446a5.73,5.73,0,0,0,.69-.5l-.3-.31a15.33,15.33,0,0,1,.88-1.59,1.51,1.51,0,0,1,2.78.67,37,37,0,0,1-.44,7.56l-5.79,45c1.69-12.51,7-33.62,8-34.78,1.33-1.48,4.2-.57,3.9,1.4-4.2,27.51-10.08,53.42-10,77a9.41,9.41,0,0,0-1.17.64c-3.27,2.08-5.42,5.49-7.35,8.85-3.18,5.56-6,11.29-8.66,17.13-4.5-5.62-11.69-14.08-15.86-20.4-.22-.33-.43-.65-.63-1a23,23,0,0,1-2.84-5.64,21.33,21.33,0,0,1-.49-7.4Q1046,528,1046.68,523.49Z"/><path class="cls-2" d="M1060,106.68c-1-4-2.31-8.07-2.84-12.13,2.45-.77,5.62-.65,8.36-1.53l9.88-3.21a1.55,1.55,0,0,1,.79-.1c.5.12.72.68.87,1.16l3.18,10.38A94.58,94.58,0,0,0,1060,106.68Z"/><path class="cls-3" d="M1024,558.44a.59.59,0,0,1-.36-.77q15.17-41.28,26.32-83.9c1.3-4.94,2.62-10,5.72-14.11,1.43-1.88,22.44-10.59,27.23-13.67a36.7,36.7,0,0,0-1.94,5.66c-2.9,10.76-4.87,21.7-6.7,32.78,1.27-10.17,1.92-20.95,2.41-30.26a2.07,2.07,0,0,0-3.87-1.11c-2.78,5-3.36,15.61-5.55,23.1-2.92,10-4.66,20.33-7.39,30.4,1.76-14.75,4.76-34,4.68-40.61,0-2.59-1.46-2.07-2.71-1.81-2.46.51-3.54,3.24-4,5.77-3.24,17.86-8.42,35.64-11.2,53.58q-.71,4.54-1,9.14a21.33,21.33,0,0,0,.49,7.4,23,23,0,0,0,2.84,5.64c.2.32.41.64.63,1h0c-.41-.22-20.4,9.78-25.17,11.77A.61.61,0,0,1,1024,558.44Z"/><path class="cls-4" d="M990.14,562c2.07-6.62,4.39-13.6,6.51-19.47,12.17-1.64,23.11-4.07,27.95-6.26-3.29,10.43-5.67,18-6,19.23a1,1,0,0,0,.36,1.08c1,.77,3.14,2.24,5,1.89v0a.61.61,0,0,0,.42,0c4.77-2,24.76-12,25.17-11.77h0c4.17,6.32,11.36,14.78,15.86,20.4-3.71,8.23-7,16.66-10.16,25.11a1.55,1.55,0,0,0,.53,1.79c6.55,4.83,46.11,33.82,77.76,52.33-29.47-16.74-82.05-48.42-96-55.07-12.53-6-31.39-15.1-43.92-21.07h0a13.88,13.88,0,0,0-3.07-8Z"/><path class="cls-5" d="M1023.68,557.67a.59.59,0,0,0,.36.77v0c-1.91.35-4.07-1.12-5-1.89a1,1,0,0,1-.36-1.08c.31-1.24,2.69-8.8,6-19.23h0c3.47-11,8-25.13,12.17-38.44,1.44-4.56,2.84-9,4.16-13.23,1.75-5.6,3.34-10.73,4.65-15s2.15-9.17,5.23-12.58a25.58,25.58,0,0,1,6.24-4.6q6.29-3.69,12.87-6.83a21.53,21.53,0,0,1,7-2.34,8.11,8.11,0,0,1,6.45,1.95q-.21.4-.39.81c-4.79,3.08-25.8,11.79-27.23,13.67-3.1,4.07-4.42,9.17-5.72,14.11Q1038.87,516.33,1023.68,557.67Z"/><path class="cls-4" d="M1024.93,167c-8.65,5.09-21.33,1.72-27.45-5.71s-6.56-17.61-3.69-26.45c8.48-26.18,44.88-8.05,42.78,13.23a25.9,25.9,0,0,1-3.45,10A23.05,23.05,0,0,1,1024.93,167Z"/><path class="cls-6" d="M1036.57,148.06c2.1-21.28-34.3-39.41-42.78-13.23-2.87,8.84-2.42,19,3.69,26.45s18.8,10.8,27.45,5.71a23.05,23.05,0,0,0,8.19-9A25.9,25.9,0,0,0,1036.57,148.06Zm-55.42,3.35c-2.91-17.42,7.79-39.34,26.84-43,17.34-3.34,38.46,9.57,41.67,29.91,2.51,15.92-8.1,32.59-21.85,39.79s-32.55,3.21-41-10.27C983.75,162.93,982.12,157.19,981.15,151.41Z"/><path class="cls-2" d="M983.5,479.33a22.34,22.34,0,0,1,8.26-6.89c11.94-5.82,22.3-4.38,28.88,1.44,5.1,4.51,7.94,11.65,7.48,20.07a31.33,31.33,0,0,1-1.29,7.71,15.61,15.61,0,0,1-5.86,8.42c-4,2.74-9.32,3.34-14.32,3a34.75,34.75,0,0,1-18-6.22c-5-3.73-8.55-9.23-9-15.08A18.82,18.82,0,0,1,983.5,479.33Z"/><path class="cls-6" d="M1148.12,654.24l1,.51.91.45-.91-.45ZM1135,647.06c4,2.32,7.84,4.45,11.47,6.33C1143.4,651.76,1139.5,649.6,1135,647.06ZM804,549.55q21.6-7.81,43.74-14.07c6-1.68,12-3.29,18.2-3.41a42.21,42.21,0,0,1,7.85.63,60.2,60.2,0,0,0,7.32,1.81,154.39,154.39,0,0,1,17.72,7.17l.2.68a3.71,3.71,0,0,0-2.31,1.77c-1,2-.2,4.45.8,6.47,5.62,11.45,16.14,20,27.84,25.08s24.56,6.94,37.3,7.48a115.06,115.06,0,0,0,18.19-.49c3.9-.46,8.63-2.57,10.9-5.79a11,11,0,0,0,2-6.75h0c12.53,6,31.39,15.09,43.92,21.07,14,6.65,66.55,38.33,96,55.07-31.65-18.51-71.21-47.5-77.76-52.33a1.55,1.55,0,0,1-.53-1.79c3.18-8.45,6.45-16.88,10.16-25.11,2.63-5.84,5.48-11.57,8.66-17.13,1.93-3.36,4.08-6.77,7.35-8.85a9.41,9.41,0,0,1,1.17-.64c3.14-1.49,7.11-1.5,9.64.83,0,0,107,73.7,157.88,111.37,9.74,7.22,18.43,14,23.67,23.12a12.75,12.75,0,0,1-8,18.81c-10.26,2.45-19.95,4.45-31.37,4.78-68.31,2-129,4.37-197.22,1.11-47.59-2.27-111.38,0-162.27-1h0c-11.19-26.09-23.94-52-36.51-78-11.65-24.08-22.76-48.19-34.55-71.84Z"/><path class="cls-1" d="M993.68,570.13a11,11,0,0,1-2,6.75c-2.27,3.22-7,5.33-10.9,5.79a115.06,115.06,0,0,1-18.19.49c-12.74-.54-25.6-2.4-37.3-7.48s-22.22-13.63-27.84-25.08c-1-2-1.83-4.46-.8-6.47a3.71,3.71,0,0,1,2.31-1.77c2.69-.84,6.77,0,9.31.76l.72.3q-.93,2.28-1.87,4.48c11.16,11.44,23.88,18.16,39,20.75s25.56,2.21,40.74,2h.64c.78-2.71,1.67-5.62,2.61-8.61l.47.15A13.88,13.88,0,0,1,993.68,570.13Z"/><path class="cls-4" d="M983.55,103.48l0,.08c-5.58,1.42-11.41,3-17.72,4.67l0-.13c-.41-1.87-.81-3.74-1.22-5.61a1,1,0,0,1,.89-1.44l15.45-4a1,1,0,0,1,.8,0,1,1,0,0,1,.33.61C982.56,99.62,983.05,101.55,983.55,103.48Z"/><path class="cls-4" d="M963.07,342.64c-.8-.22-1.7-.79-2.37-.3a.71.71,0,0,0-.12.13l-.09-.06c3.66-5.84,7.64-11.35,12-18,16.69-25.16,32.16-51.11,48.83-76.28,1.63-2.47,4.11-6.13,7.11-10.52,0,1.91.72,7.29,1.09,7.61.74.64,1.86.08,2.84,0a3.4,3.4,0,0,1,3.13,3c.24,1.57-2.35,7.52-2.49,9.11a6.37,6.37,0,0,0,4,6.36c1.75.67,3.75.53,5.47,1.29,2.67,1.19,4,4.27,4.22,7.17.15,2-.25,4.24-1.89,5.35a6.94,6.94,0,0,1-3.61.83,7.44,7.44,0,0,0-3.63.76,2.78,2.78,0,0,0-.93,3.22c.85,3.08,3.58,5.23,5.22,8a11.81,11.81,0,0,1-.4,12.72,10.62,10.62,0,0,1-12,3.71,3,3,0,0,0-1.46-.33,2.14,2.14,0,0,0-1.51,1.5c-.93,2.46.06,5.17.51,7.76s0,5.87-2.5,6.81a5.9,5.9,0,0,1-3,.12c-4.81-.74-10.19-2.78-14.18,0-2.37,1.64-3.46,4.55-4.29,7.31s-1.61,5.7-3.64,7.74-5.81,2.67-7.67.47a32,32,0,0,1-1.76-3.14c-.67-1-2-1.77-3.05-1.14-1,2.32-2.15,4.74-4.17,6.28s-5.23,1.83-6.92-.07A13,13,0,0,0,974,337.9C970.53,335.4,967.21,343.8,963.07,342.64Z"/><path class="cls-4" d="M981.82,513.76c-8.25,5.16-26.91,9.33-29.09,8.83-.62-.14-1.05-.87-1.24-1.28-3-6.41-4.89-14.9-6.58-21.65a.62.62,0,0,1,1-.61c3.78,3.47,9.18,8,14.82,10,4.87,1.71,16.25,2.79,20.88,3.51A.64.64,0,0,1,981.82,513.76Z"/><path class="cls-2" d="M942,486.56a28.61,28.61,0,0,1-18.9-4.41c-5.44-3.74-9.26-10-9.31-16.64,0-2.86,1-6.89,2.79-11,2.77-6.49,7.28-13.11,11.93-15.41,7.77-3.86,23.41,1.73,28.43,8.79,3.22,4.52,4.34,12.06,3.55,19.07-.6,5.32-2.3,10.33-5,13.48C952.15,484.29,947,486.06,942,486.56Z"/><path class="cls-2" d="M918,520.65c11.89,10.41,22,18.64,36.86,22.39,9.46,2.38,26.56,1.55,41.76-.51-2.12,5.87-4.44,12.85-6.51,19.47-.94,3-1.83,5.9-2.61,8.61h-.64c-15.18.24-25.78.59-40.74-2s-27.83-9.31-39-20.75q.95-2.21,1.87-4.48C912,536.18,914.85,528.42,918,520.65Z"/><path class="cls-2" d="M928.49,439.13c-4.65,2.3-9.16,8.92-11.93,15.41l-.46-.2c-.69-.33-12.13-16.1-14-18.26l-.11,0c-.27-1.25-.59-2.57-1-3.9l.25-.07c15.18.67,29.69,3,48,.43,15.21-2.14,46.53-20.87,49.68-22.77,1.06,10,3.39,26.53,6.14,36.26s9.46,18,16.63,25.16c.38.38.79.76,1.22,1.15l-2.22,1.52c-6.58-5.82-16.94-7.26-28.88-1.44a22.34,22.34,0,0,0-8.26,6.89l-.36-.27c-3.5-6.87-14.73-12.64-22.42-12l-.25,0c.79-7-.33-14.55-3.55-19.07C951.9,440.86,936.26,435.27,928.49,439.13Z"/><path class="cls-2" d="M952.73,522.59c2.18.5,20.84-3.67,29.09-8.83a.64.64,0,0,0-.18-1.2c-4.63-.72-16-1.8-20.88-3.51-5.64-2-11-6.53-14.82-10a.62.62,0,0,0-1,.61c1.69,6.75,3.61,15.24,6.58,21.65C951.68,521.72,952.11,522.45,952.73,522.59Zm-64.79-51.06c-4.57,1.9-10.33,3.11-14.58,1.38-6-2.45-3.77-8.71-2.69-13a114.62,114.62,0,0,1,5.49-16.55c1.83-4.36,9.61-27,18.29-21.62,3.36,2.07,5.31,6.28,6.54,10.47.4,1.33.72,2.65,1,3.9l.11,0c1.88,2.16,13.32,17.93,14,18.26l.46.2c-1.75,4.08-2.81,8.11-2.79,11,.05,6.61,3.87,12.9,9.31,16.64a28.61,28.61,0,0,0,18.9,4.41c5-.5,10.17-2.27,13.47-6.09,2.72-3.15,4.42-8.16,5-13.48l.25,0c7.69-.6,18.92,5.17,22.42,12l.36.27a18.82,18.82,0,0,0-3.82,12.42c.44,5.85,4,11.35,9,15.08a34.75,34.75,0,0,0,18,6.22c5,.37,10.34-.23,14.32-3a15.61,15.61,0,0,0,5.86-8.42c2.63-1.51,6.81-2.78,9.94-3.83h0c-4.2,13.31-8.7,27.47-12.17,38.44h0c-4.84,2.19-15.78,4.62-27.95,6.26-15.2,2.06-32.3,2.89-41.76.51-14.88-3.75-25-12-36.86-22.39C910.62,514.15,888.29,481.26,887.94,471.53Z"/><path class="cls-4" d="M833.42,505c-13.74-14-38.51-43.91-33.72-42,6.45,2.53,20.35,1.15,26.38-2.24,13-7.3,22.8-19,32.34-30.39l18-21.57c5.88-7,12.65-13.87,17.85-21.41,8.33-12.06,17.82-21.65,32.06-26.59a67.84,67.84,0,0,1,26.07-3.26c9.54.61,18.94,3.14,26.43,7.8,10.11,6.28,24,24.32,24.45,24.89,3.36-2.52,13.73-4.76,17.92-5,16-1.06,31.1,9.45,41.79,19.71,8.29,8,20.68,23.7,18.65,38.35l2.55.41a15.33,15.33,0,0,0-.88,1.59,8.11,8.11,0,0,0-6.45-1.95,21.53,21.53,0,0,0-7,2.34q-6.59,3.14-12.87,6.83a25.58,25.58,0,0,0-6.24,4.6c-3.08,3.41-3.89,8.19-5.23,12.58s-2.9,9.42-4.65,15c-1.62-1.31-12-6.85-18.08-12.24-.43-.39-.84-.77-1.22-1.15-7.17-7.14-13.87-15.43-16.63-25.16s-5.08-26.21-6.14-36.26c-3.15,1.9-34.47,20.63-49.68,22.77-18.26,2.57-32.77.24-48-.43l-.25.07c-1.23-4.19-3.18-8.4-6.54-10.47-8.68-5.35-16.46,17.26-18.29,21.62a114.62,114.62,0,0,0-5.49,16.55c-1.08,4.3-3.35,10.56,2.69,13,4.25,1.73,10,.52,14.58-1.38.35,9.73,22.68,42.62,30.09,49.12-3.18,7.77-6,15.53-9,22.77l-.72-.3c-2.54-.77-6.62-1.6-9.31-.76l-.2-.68a154.39,154.39,0,0,0-17.72-7.17,59.24,59.24,0,0,0-7.32-1.81C858,527.81,845.36,517.1,833.42,505Z"/><path class="cls-7" d="M781.4,318.52c-.59,1.9,1.46,3.5,3.23,4.4l1.62.82A185.66,185.66,0,0,0,847.87,342c1.25.14,2.5.27,3.76.39a4.86,4.86,0,0,0,2.57-.23c1.53-.74,1.84-2.94,1.08-4.47a5.61,5.61,0,0,0-1.65-1.82c4.23,2.74,9.11,5.72,13,8.34,1.85,1.26,3.77,2.59,4.45,4.84a3.87,3.87,0,0,1-.19,2.8c-1,1.89-2.93,2-4.7,1.95-33-.42-65.89-10.5-94.49-26.94-2-1.18-2-3.21-1.14-4.91a6.44,6.44,0,0,1,2.24-2.61c3.07-1.85,6.64-2.17,10.81-2.34A2.59,2.59,0,0,0,781.4,318.52Z"/><path class="cls-4" d="M853.63,335.88a5.61,5.61,0,0,1,1.65,1.82c.76,1.53.45,3.73-1.08,4.47a4.86,4.86,0,0,1-2.57.23c-1.26-.12-2.51-.25-3.76-.39l.09-.85c.81-2.32,1.67-4.75,2.56-7.24l.35.12c.85.58,1.76,1.18,2.7,1.8Z"/><path class="cls-4" d="M821.61,279.15c-.31-2.29-6.5-43.73-5.1-45.57,1.81-2.38,37.21,15.38,49.29,16.27a1.14,1.14,0,0,1,.66,2c-11.45,9.86-35,30.42-36.08,31.1C827.64,284.67,822.09,282.83,821.61,279.15Z"/><path class="cls-2" d="M786.47,323.3q.72-3,1.55-6.07c2.37-8.88,5.3-18.14,8.48-26.84h0a.63.63,0,0,0,.13-.36c.92-2.55,1.88-5,2.84-7.47l.18-.21a162.14,162.14,0,0,0,26.11,18.11c8.71,5,18.72,4.13,28.53,3.05q3.68-.4,7.32-1.06l.08.48c-.84,2.42-1.75,4.95-2.69,7.56-2.73,7.62-5.76,15.84-8.49,23.44-.89,2.49-1.75,4.92-2.56,7.24l-.09.85a185.66,185.66,0,0,1-61.62-18.27Z"/><path class="cls-6" d="M804,673.34c-24.18-4.33-36.89-5.28-48.35-8.17h0c3.64-14.73,7.45-29.55,11.49-44.61l.64.17C776.45,635.2,795.23,658.86,804,673.34Z"/><path class="cls-4" d="M678.32,222c-5-1.46-4.84-8.61-3.3-13.61s2.76-11.72-1.78-14.32c-2.83-1.62-6.63-.55-9.45-2.18-3.23-1.86-3.45-7.26-.38-9.37,2-1.38,4.65-1.29,7-1.78s5-2.2,4.83-4.63c-.13-1.76-1.65-3-2.77-4.37a11.37,11.37,0,0,1,8.24-18.61c4.55-.21,8.8,2.3,13.33,2.67s10.1-3.41,8.47-7.66c-.92-2.37-3.71-3.63-4.58-6-1.12-3.11,1.76-6.45,5-7.25s6.55.11,9.8.67,6.93.67,9.51-1.4c1.25-4-4.62-9-1.42-11.73a4.61,4.61,0,0,1,2.74-.84c7-.39,14.92,3.53,20.47-.72,3.34-2.56,4.27-7.08,5.56-11.08s3.95-8.35,8.15-8.62c3.89-.24,7,3.17,10.85,4,4.67,1,9.15-2,13.22-4.46s9.34-4.65,13.41-2.14c2.12,1.3,3.46,3.67,5.67,4.81,6.52,3.37,14.72-5.9,21.11-2.28,3.24,1.83,4.23,6.22,7.31,8.3,4.49,3,10.42-.24,15.83-.57a14.58,14.58,0,0,1,14.57,10.8c.44,1.82.64,3.94,2.17,5,1.37,1,3.2.63,4.87.65a11.4,11.4,0,0,1,10.84,10.64l1.26.52a26.46,26.46,0,0,1,7.13-6.62,5.8,5.8,0,0,1,3.54-1.16c2,.21,3.26,2.11,4.74,3.45a9.85,9.85,0,0,0,11.65.86c2.08-1.38,3.57-3.53,5.94-4.54a5,5,0,0,1,2-.42c3.27,0,3.64,3.07,5.41,4.75,3.46,3.28,9.41-.34,12.18-3.72a14.08,14.08,0,0,1,4.3-3.69c7.52-3.94,11,3.14,12.14,7.91a15.12,15.12,0,0,0,3.08,6.24c1.72,2,3.72,3.31,5.54,2.29a3.08,3.08,0,0,1,3.14.2c2.41,1.52,3.48,9.11,6.13,5.94,3.83,17.69,8.19,38.25,11.18,53.67l8.82-2.15c-.6,1.36-45.8,81.55-72.63,129.13l-2-1.16a5.74,5.74,0,0,1-7.26-4.85,7.42,7.42,0,0,0-.15-1.7c-.66-2.16-4.12-1.86-5.5-.07s-1.51,4.22-2.24,6.37-2.77,4.29-4.94,3.65-2.69-3.67-2.35-6,.93-5-.54-6.8c-1.68-2.06-5-1.65-7.25-.2s-3.86,3.67-6.1,5.11-5.61,1.78-7.23-.33c-1.89-2.46,0-6.09-.81-9.1-.92-3.44-5.16-5.47-7.72-3h0c.94-2.61,1.85-5.14,2.69-7.56l-.08-.48a110.5,110.5,0,0,0,49.13-22l.19-.24a3.79,3.79,0,0,0,2.21.82c2,.06,3.67-1.63,5-3.19l21.11-24.73c2.24-2.62,4.51-5.3,5.77-8.51a4.28,4.28,0,0,0,.22-3.32c-.83-1.76-3.24-1.9-5.19-1.77a79.89,79.89,0,0,1-9.87-.38c-2.82-1-5.37,2.76-8.34,2.47s-4-3.89-3.76-6.74,1-6-.54-8.39c-2.59-.5-5,1.65-7.69,1.57-3.45-.1-5.66-4-5.76-7.43s1.19-6.82,1.36-10.28-1.33-7.49-4.68-8.36c-3.15-.82-6.6,1.52-9.65.37-3.54-1.34-3.94-6.14-3.47-9.9s.91-8.3-2.11-10.58c-1.6-1.2-3.73-1.36-5.55-2.19-6.13-2.78-6.33-11.27-5.59-18-2.4,3.57-4.87,7.23-8.35,9.76s-8.23,3.78-12.16,2c-2.52-1.12-4.69-3.4-7.45-3.35-3.58.07-5.79,4-6.34,7.56-.39,2.53-.5,5.46-2.53,7-4.65,3.57-10.52-4.8-16.3-3.78-4,.7-5.68,5.37-7.3,9.11s-5.62,7.72-9.15,5.69c-1.94-1.1-2.91-3.75-5.09-4.18-3.1-.61-4.72,3.38-6.54,5.95-1.17,1.65,1.46,6.48,2.2,8.44.94,2.48-7.78,9.4-10.52,7.37-.76-.57-1.63-12.45-2.56-12.66a10.84,10.84,0,0,1-6.11-3.64c-2.91-5.39-2.49-6.94-7.61-10.29-.38-.25-2.94-1.27-3.86-1.06-4.9,1.13-6,19.88-5.54,31.64a113.16,113.16,0,0,0,3,20.46,10.07,10.07,0,0,0,2.28,4.88c1.85,1.87,4.82,2.24,7.36,1.6a6.14,6.14,0,0,0,.73-.22l.14.49c5,14.4,14.61,26.92,26,37l.9.78-.18.21c-1,2.43-1.92,4.92-2.84,7.47a2.6,2.6,0,0,0-.13.36h0c-1.11,1.43-8.65.21-10.41-.46s-3.59-2.2-5.62-2.23c-2.73,0-5.06,2.6-7.76,2.22-4.05-.57-4.33-6.66-7.6-9.11-6-4.5-15.36,6.18-21.19,1.52-4.51-3.6-1.27-12.7-6.37-15.39-4.12-2.17-8.82,2.53-13.45,2.08-4-.39-6.65-4.59-7.41-8.58s-.34-8.16-1.48-12.05a6.34,6.34,0,0,0-1.49-2.8c-4.1-4.05-10.83,3.5-16.35,1.81-4.86-1.5-4.77-8.34-3.69-13.31s1.14-11.82-3.74-13.28C686.16,219.68,682.11,223.08,678.32,222Z"/><path class="cls-4" d="M788,317.23q-.82,3.07-1.55,6.07l-.22.44-1.62-.82c-1.77-.9-3.82-2.5-3.23-4.4a2.59,2.59,0,0,1,2.17-1.51l2.61-.1a9.73,9.73,0,0,1,1.47.22Z"/><path class="cls-2" d="M830.38,283c1.08-.68,24.63-21.24,36.08-31.1a1.14,1.14,0,0,0-.66-2c-12.08-.89-47.48-18.65-49.29-16.27-1.4,1.84,4.79,43.28,5.1,45.57C822.09,282.83,827.64,284.67,830.38,283Zm-31.62-1.39c-11.42-10.12-21-22.64-26-37l-.14-.49a6.14,6.14,0,0,1-.73.22c-2.54.64-5.51.27-7.36-1.6a10.07,10.07,0,0,1-2.28-4.88,113.16,113.16,0,0,1-3-20.46c-.5-11.76.64-30.51,5.54-31.64.92-.21,3.48.81,3.86,1.06,5.12,3.35,4.7,4.9,7.61,10.29a10.84,10.84,0,0,0,6.11,3.64c.93.21,1.8,12.09,2.56,12.66,2.74,2,11.46-4.89,10.52-7.37-.74-2-3.37-6.79-2.2-8.44,1.82-2.57,3.44-6.56,6.54-5.95,2.18.43,3.15,3.08,5.09,4.18,3.53,2,7.54-2,9.15-5.69s3.29-8.41,7.3-9.11c5.78-1,11.65,7.35,16.3,3.78,2-1.56,2.14-4.49,2.53-7,.55-3.54,2.76-7.49,6.34-7.56,2.76,0,4.93,2.23,7.45,3.35,3.93,1.75,8.68.51,12.16-2s6-6.19,8.35-9.76c-.74,6.68-.54,15.17,5.59,18,1.82.83,4,1,5.55,2.19,3,2.28,2.58,6.83,2.11,10.58s-.07,8.56,3.47,9.9c3,1.15,6.5-1.19,9.65-.37,3.35.87,4.85,4.91,4.68,8.36s-1.45,6.82-1.36,10.28,2.31,7.33,5.76,7.43c2.65.08,5.1-2.07,7.69-1.57,1.55,2.41.75,5.54.54,8.39s.91,6.47,3.76,6.74,5.52-3.42,8.34-2.47a79.89,79.89,0,0,0,9.87.38c2-.13,4.36,0,5.19,1.77a4.28,4.28,0,0,1-.22,3.32c-1.26,3.21-3.53,5.89-5.77,8.51l-21.11,24.73c-1.33,1.56-3,3.25-5,3.19a3.79,3.79,0,0,1-2.21-.82l-.19.24a110.5,110.5,0,0,1-49.13,22q-3.64.66-7.32,1.06c-9.81,1.08-19.82,1.93-28.53-3.05a162.14,162.14,0,0,1-26.11-18.11Zm67.07-59.65c.51,2.08,2.57,2,2.45-.16a11.87,11.87,0,0,0-.29-2.3c-.09-.31-.36-1.09-.36-1.09a1.15,1.15,0,0,0-.78-.59c-.65-.25-1.1.41-1.21.61C865.17,219.24,865.57,220.86,865.83,221.91Zm-18.89-7.54c.51,2.08,2.57,1.95,2.45-.16a11.88,11.88,0,0,0-.3-2.3c-.08-.32-.35-1.1-.35-1.1a1.21,1.21,0,0,0-.78-.59c-.66-.24-1.1.42-1.21.61C846.27,211.7,846.68,213.32,846.94,214.37Z"/><path class="cls-8" d="M728.66,331.22a174.73,174.73,0,0,1,41.54-9.42l.32.16c-.83,1.7-.91,3.73,1.14,4.91,28.6,16.44,61.51,26.52,94.49,26.94,1.77,0,3.75-.06,4.7-1.95a3.87,3.87,0,0,0,.19-2.8c3.59,2.22,15.25,9.3,22.7,13.89l19.42-34.42C940,281,985.19,200.76,985.79,199.4h0c29.28-7.2,56.81-14.41,85.19-22.22-4.8,6-29,40.62-42.51,60.46-3,4.39-5.48,8.05-7.11,10.52-16.67,25.17-32.14,51.12-48.83,76.28-4.4,6.63-8.38,12.14-12,18a117,117,0,0,0-8,14.91v.15a67.84,67.84,0,0,0-26.07,3.26c-14.24,4.94-23.73,14.53-32.06,26.59-5.2,7.54-12,14.37-17.85,21.41l-18,21.57c-9.54,11.42-19.37,23.09-32.34,30.39-6,3.39-19.93,4.77-26.38,2.24-4.79-1.88,20,28.07,33.72,42,11.94,12.14,24.58,22.85,40.34,27.74a42.21,42.21,0,0,0-7.85-.63c-6.19.12-12.24,1.73-18.2,3.41Q825.6,541.73,804,549.55l-.06,0c-16.93-34-35.26-67-58.55-97.56l-2.49-3.29,19.39-14.2c3.18-2.33,6.57-4.95,7.61-8.75.91-3.35-.21-6.88-1.37-10.15-9.92-28-23.32-54.59-38.29-80.2q-1.11-1.9-2.24-3.8Z"/><path class="cls-6" d="M725.55,597.78q3.76-17.19,7.94-34.31l.08,0c5.38,10.24,11.08,20.33,18,34.5h-26Z"/><path class="cls-5" d="M649.8,448.19c2.47-3.26,5-6.67,5.82-10.68a14.69,14.69,0,0,0-.86-8.34c12.85,20.27,24.47,35.74,35.52,58.17-4.65,4.23-12.46,10.33-16.31,14.26,5.73,3.88,17.26,8.69,23,12.56-10.91,27.1-23.11,56.42-33.38,83.77H631V597c4.47-48.58,9.36-95.35,15-143.81Z"/><path class="cls-4" d="M697,514.16c-5.74-3.87-17.27-8.68-23-12.56,3.85-3.93,11.66-10,16.31-14.26-11-22.43-22.67-37.9-35.52-58.17-.07-.16-.14-.32-.2-.48,20.05-.81,53.72-2.72,72.8,6.33,7.57,3.59,11.5,8.39,15.51,13.71l2.49,3.29c23.29,30.58,41.62,63.59,58.55,97.56,11.79,23.65,22.9,47.76,34.55,71.84,12.57,26,25.32,51.92,36.51,78h0q2.26,5.28,4.44,10.58c5.15,12.53-4.06,28.8-17.41,26.58-43.79-7.3-74.88-7.64-119.17-17.11h0c4-18.17,8.28-36.18,12.76-54.32h0c11.46,2.89,24.17,3.84,48.35,8.17-8.74-14.48-27.52-38.14-36.25-52.62l-.64-.17q3-11.2,6.16-22.62H751.53c-6.88-14.17-12.58-24.26-18-34.5l-.08,0q-4.17,17.12-7.94,34.31v.15h-62C673.86,570.58,686.06,541.26,697,514.16Z"/><path class="cls-2" d="M651,423.13a20.64,20.64,0,0,1,3.58,5.56c.06.16.13.32.2.48Q652.89,426.23,651,423.13Z"/><path class="cls-2" d="M646,453.23Q634.66,468.14,623.33,483a322.44,322.44,0,0,1-21.43-48.1.75.75,0,0,0-.73-.52l0-.18c6.82-.64,13.47-1.66,19.71-2.67a21.67,21.67,0,0,0,8.43-2.88c2.51-1.62,4.5-4.34,4.49-7.33s-3.55-6-6.53-5.84l-.33.06-.54-3.1.26-.05c6.82,1.55,14.68,3.19,20.41,7.2a23,23,0,0,1,3.92,3.48v0q1.9,3.11,3.78,6a14.69,14.69,0,0,1,.86,8.34c-.8,4-3.35,7.42-5.82,10.68Z"/><path class="cls-4" d="M633.78,421.36c0,3-2,5.71-4.49,7.33-.08-.16-1.18-6.39-2.37-13.11l.33-.06C630.23,415.38,633.77,418.37,633.78,421.36Z"/><path class="cls-2" d="M601.9,434.94A322.44,322.44,0,0,0,623.33,483q11.32-14.91,22.64-29.81c-5.66,48.46-10.55,95.23-15,143.81v.89H599.66v-.15c-.41-54.33-1.11-108.09,1.4-162.37l-.69-.27.09-.23a.77.77,0,0,1,1.44,0Z"/><path class="cls-2" d="M613.34,356a84.3,84.3,0,0,1-17.83,3.24c-9,.66-22.38.76-31.3-3.46a.56.56,0,0,0-.69.85c4,5,20.31,30.3,25.55,36.84,1.91,2.37,4.19,4.94,8.09,3.3a8.57,8.57,0,0,0,3.82-3.33L628.12,351a.2.2,0,0,0-.29-.27C624.37,353.29,616.35,355.12,613.34,356Zm-109.6-2.75c-2.32-8.25-6.24-28.21-5.24-29.41,2-2.47,15.93-4.64,23.06,3.72h0a61.78,61.78,0,0,0,30.32-8.06,112.35,112.35,0,0,0,48.4-55.09.84.84,0,0,1,1.6.13c6,26.5,50,63.15,67,69.36h0c4.61-6,18.63-9.42,20.4-8.22,1.22.82,1,13.19-.51,17.66-3.41,10.15-6.39,20.57-11.87,29.77-.85,1.42-1.95,2.95-3.59,3.22-2.12.35-4.74-1.13-5.91-2.93-.22-.34-.43-.7-.62-1.06l-.55.21c-7.49,9.72-25.94,19.21-42.38,26.12-15.46,6.49-29.15,10.7-30.29,10.66s-12.32-3.9-25.54-10c-15-6.87-32.76-16.59-42.24-26.8l-.44-.26a51.28,51.28,0,0,1-5.53,8.21c-1.73,1.08-4.64-1.34-5.87-3C508.2,370,506.31,362.39,503.74,353.26Z"/><path class="cls-6" d="M623.86,398.66c16.44-6.91,34.89-16.4,42.38-26.12l.55-.21c.19.36.4.72.62,1.06,1.17,1.8,3.79,3.28,5.91,2.93,1.64-.27,2.74-1.8,3.59-3.22,5.48-9.2,8.46-19.62,11.87-29.77,1.51-4.47,1.73-16.84.51-17.66-1.77-1.2-15.79,2.21-20.4,8.22h0c-17-6.21-61-42.86-67-69.36a.84.84,0,0,0-1.6-.13,76.87,76.87,0,0,1,2.28-26c2.5-8.94,7-16.17,13.84-17.32,10.14-1.69,19.56.57,28.37,4.89,13.9,6.82,21.17,17.25,30.8,29.38A680.86,680.86,0,0,1,728,331.63q1.13,1.89,2.24,3.8c15,25.61,28.37,52.24,38.29,80.2,1.16,3.27,2.28,6.8,1.37,10.15-1,3.8-4.43,6.42-7.61,8.75l-19.39,14.2c-4-5.32-7.94-10.12-15.51-13.71-19.08-9-52.75-7.14-72.8-6.33a20.64,20.64,0,0,0-3.58-5.56v0a23,23,0,0,0-3.92-3.48c-5.73-4-13.59-5.65-20.41-7.2l-.26.05c-1.21-6.84-2.33-13.29-2.39-13.5h0Z"/><path class="cls-2" d="M574.56,597c-8.69-46.79-17.43-100.21-27-146.84,3.65,4.77,8.3,8.75,12.91,12.65l20.65,17.53c8.15-14.45,13.11-29.46,19.21-45.2l.69.27c-2.51,54.28-1.81,108-1.4,162.37v.15h-25.1Z"/><path class="cls-6" d="M429.61,398.16c3.78-9.72,8-19.29,12.35-28.76a796.91,796.91,0,0,1,71.73-124.27l.71-1c8.41-11.9,18.42-24.42,32.69-27.38,9-1.87,22.32-2.74,30.55,1.35,8,4,17.43,7.68,24.86,20.25l.07,0a76.87,76.87,0,0,0-2.28,26,112.35,112.35,0,0,1-48.4,55.09,61.78,61.78,0,0,1-30.32,8.06h0c-7.13-8.36-21-6.19-23.06-3.72-1,1.2,2.92,21.16,5.24,29.41,2.57,9.13,4.46,16.73,10.21,24.27,1.23,1.62,4.14,4,5.87,3a51.28,51.28,0,0,0,5.53-8.21l.44.26c9.48,10.21,27.25,19.93,42.24,26.8l-1.35,2.53a13.22,13.22,0,0,0-.34,2.59c-.22,3.71-.44,7.41-.67,11.12l-.93-.06c-6-.75-13.24,4-17.14,9.7l0,0c-.29.42-.55.84-.79,1.26l-.13.22c-.7,1.11-1.41,2.22-2.15,3.33-23.3-.82-52-4.95-70.62,4.95-7.35,3.9-13,10.39-18,17q-6.13,8.06-11.83,16.34l-.39-.27c-6.89-1.85-17.24-4-21.82-9.45-6.62-7.93-5-19.69-2.39-29.68A286.68,286.68,0,0,1,429.61,398.16Z"/><path class="cls-2" d="M565.57,417.24c0-.56.07-1.11.1-1.66.23-3.71.45-7.41.67-11.12a13.22,13.22,0,0,1,.34-2.59l1.35-2.53c13.22,6.08,24.26,9.93,25.54,10s14.83-4.17,30.29-10.66l.13.31h0c.06.21,1.18,6.66,2.39,13.5l.54,3.1c1.19,6.72,2.29,12.95,2.37,13.11a21.67,21.67,0,0,1-8.43,2.88c-6.24,1-12.89,2-19.71,2.67-12.1,1.15-24.74,1.12-36.65-2.28l.24-.82Q565.16,424.18,565.57,417.24Z"/><path class="cls-4" d="M564.21,355.79c8.92,4.22,22.25,4.12,31.3,3.46A84.3,84.3,0,0,0,613.34,356c3-.89,11-2.72,14.49-5.26a.2.2,0,0,1,.29.27L601,393.45a8.57,8.57,0,0,1-3.82,3.33c-3.9,1.64-6.18-.93-8.09-3.3-5.24-6.54-21.59-31.81-25.55-36.84A.56.56,0,0,1,564.21,355.79Z"/><path class="cls-4" d="M565.57,417.24q-.41,6.94-.83,13.9l-.24.82c-.9-.25-1.79-.53-2.68-.82a6.51,6.51,0,0,1-4-6.34C557.86,420.56,561.68,418.92,565.57,417.24Z"/><path class="cls-2" d="M565.57,417.24c-3.89,1.68-7.71,3.32-7.75,7.56a6.51,6.51,0,0,0,4,6.34c.89.29,1.78.57,2.68.82,11.91,3.4,24.55,3.43,36.65,2.28l0,.18a.75.75,0,0,0-.71.49l-.09.23c-6.1,15.74-11.06,30.75-19.21,45.2l-20.65-17.53c-4.61-3.9-9.26-7.88-12.91-12.65-.57-.74-1.11-1.5-1.63-2.28-3.83-5.82-2.83-13.6.08-19.93.19-.4.39-.81.61-1.21l.13-.22c.27-.42.53-.84.79-1.26l0,0c3.9-5.75,11.16-10.45,17.14-9.7l.93.06C565.64,416.13,565.61,416.68,565.57,417.24Z"/><path class="cls-5" d="M543.4,597a299.27,299.27,0,0,0-36.27-73.31q7.25-9.59,14.5-19.18l-23.56-12c12.79-21,32.63-41.56,46.44-62.47.74-1.11,1.45-2.22,2.15-3.33-.22.4-.42.81-.61,1.21-2.91,6.33-3.91,14.11-.08,19.93.52.78,1.06,1.54,1.63,2.28,9.53,46.63,18.27,100.05,27,146.84v.93H543.4Z"/><path class="cls-4" d="M443.16,665.17q-4.7-23-8.86-46.12-1.91-10.54-3.71-21.12H773.24q-3.16,11.42-6.16,22.62c-4,15.06-7.85,29.88-11.49,44.61-4.48,18.14-8.71,36.15-12.76,54.32-5.82,26.15-11.29,52.63-16.66,80.3H532.34c-19.24,1.69-36.38,1.13-55.69.66q-11.31-38-20.48-76.57Q449.15,694.64,443.16,665.17Z"/><path class="cls-9" d="M466.31,558.61l11.63,39.32h-30.3Z"/><path class="cls-6" d="M435.47,16.23c-1.3-3.34-3.83-6.37-3.33-9.79.47-3.1,3.65-5.29,6.79-5.43a9.21,9.21,0,0,1,9,6.34,8.87,8.87,0,0,1-4.22,10.09c-1.95,1-4.68,1.07-6-.66l-2,.08C435.63,16.65,435.55,16.44,435.47,16.23Z"/><path class="cls-4" d="M441.12,231a3,3,0,0,1,3.69-.27h0a3.44,3.44,0,0,1,1.49,1.64c.81,2-.09,4.29-1.62,5.77a9.38,9.38,0,0,1-2.38,1.6c-.57-3.06-1.07-5.89-1.52-8.69Z"/><path class="cls-2" d="M400.46,254.68a276.21,276.21,0,0,1-38.63,6.86c-.61-2.47-1.41-5.29-2.33-8.24-2.19-7.05-5-14.86-7.31-20.61a80.82,80.82,0,0,0,46.15,4.36c13.78-3,28.61-10.12,40.69-18.73.54,4.58,1.09,8.63,1.76,12.74.45,2.8.95,5.63,1.52,8.69-1,.52-2.13.94-3.18,1.41A235.07,235.07,0,0,1,400.46,254.68Z"/><path class="cls-2" d="M384,220.68c2.55,3,9,2,11-1.34.94-1.56,8.44-24.73,7.61-24.58-6.91,1.3-26.43,3.68-31.78,4.65a.89.89,0,0,0-.63,1.31C372.93,205.68,382.37,218.75,384,220.68Zm-53.95-3.16c-1.25,2.85-3.4,7.29-5,7.29-3.19,0-25.1-33.21-23.18-39.75,1.15-3.92,10.42-6.79,13.19-3.92-5.52-9.85,4.63-42.83,33.37-50.14,9.13,11.18,24,15.65,38.17,18.34,15.82,3,39.87,2.48,52.84-7.07,6.47,5.08,13.24,11.86,16.36,19.47,3.19-4.17,9.36-8.65,12.39-8.65s5.69,5.94,5.48,8.9c-.65,9-8.28,40.35-11.31,40.26-1.76-.05-2.86-1.15-3.74-2.67-4.46,6.33-11.41,12.87-19.64,18.74-12.08,8.61-26.91,15.77-40.69,18.73a80.82,80.82,0,0,1-46.15-4.36A59.58,59.58,0,0,1,330.06,217.52Zm63.26-42.44c.51,2.08,2.57,1.95,2.45-.16a11.87,11.87,0,0,0-.29-2.3c-.09-.32-.36-1.1-.36-1.1a1.18,1.18,0,0,0-.78-.59c-.65-.24-1.1.41-1.21.61C392.66,172.4,393.06,174,393.32,175.08Zm-21.88,1.24c.51,2.08,2.57,2,2.45-.16a11.87,11.87,0,0,0-.29-2.31c-.08-.31-.36-1.09-.36-1.09a1.19,1.19,0,0,0-.77-.59c-.66-.25-1.11.41-1.21.61C370.78,173.64,371.18,175.26,371.44,176.32Z"/><path class="cls-6" d="M348.48,131l-.07-.09A667,667,0,0,1,435.47,16.23c.08.21.16.42.23.63a9.36,9.36,0,0,1,.48,2.34c.38,5.8-.16,11.82-.24,17.64q-.26,18.27-.5,36.53c-.33,23.92,4.55,68.54,4.05,68.9-13,9.55-37,10.07-52.84,7.07C372.46,146.65,357.61,142.18,348.48,131Z"/><path class="cls-1" d="M434.3,619.05q4.17,23.12,8.86,46.12c-17.78,4.38-20.21,5.72-40.42,8.17C417.18,649.22,421.91,639.08,434.3,619.05Z"/><path class="cls-7" d="M402.51,255.79c8.73,12.38,19.17,26.48,29.57,37.49,12.05-14.45,24.11-37,28.24-51.53a1.32,1.32,0,0,0-.23-.94l.23-.09c17.77,0,35.24,2.57,53.37,4.41A796.91,796.91,0,0,0,442,369.4c-4.38,9.47-8.57,19-12.35,28.76a1419.77,1419.77,0,0,0-28.58-142l-.08-1.1A1.68,1.68,0,0,1,402.51,255.79Z"/><path class="cls-7" d="M432.08,293.28c-10.4-11-20.84-25.11-29.57-37.49a1.68,1.68,0,0,0-1.56-.72,2.2,2.2,0,0,0-.37.07l-.12-.46a235.07,235.07,0,0,0,38.67-13.52c1.05-.47,2.15-.89,3.18-1.41a9.38,9.38,0,0,0,2.38-1.6c1.53-1.48,2.43-3.81,1.62-5.77a3.44,3.44,0,0,0-1.49-1.64c4.9.79,13.66,7.19,15.27,10.07a1.32,1.32,0,0,1,.23.94C456.19,256.3,444.13,278.83,432.08,293.28Z"/><path class="cls-4" d="M322.46,708.36c3.9-9.83,7.78-18.86,11.74-27.6,8.78-19.41,17.94-37.35,28.58-59.34,12.67-26.18,24.7-52.4,37.65-78q3.1-6.13,6.28-12.21a597.37,597.37,0,0,1,37.35-62.84q5.7-8.28,11.83-16.34c5-6.61,10.65-13.1,18-17,18.65-9.9,47.32-5.77,70.62-4.95-13.81,20.91-33.65,41.52-46.44,62.47l23.56,12q-7.25,9.6-14.5,19.18A299.27,299.27,0,0,1,543.4,597v.93H477.94l-11.63-39.32-18.67,39.32H430.59q1.8,10.58,3.71,21.12c-12.39,20-17.12,30.17-31.56,54.29,20.21-2.45,22.64-3.79,40.42-8.17q6,29.46,13,58.7C412.86,729,379.37,734.05,339.93,734A18.77,18.77,0,0,1,322.46,708.36Z"/><path class="cls-4" d="M395,219.34c-2,3.3-8.46,4.35-11,1.34-1.64-1.93-11.08-15-13.79-20a.89.89,0,0,1,.63-1.31c5.35-1,24.87-3.35,31.78-4.65C403.46,194.61,396,217.78,395,219.34Z"/><path class="cls-4" d="M361.83,261.54c-3.35.36-6-3.08-5.28-5.71a3.41,3.41,0,0,1,2-2.24l.95-.29C360.42,256.25,361.22,259.07,361.83,261.54Z"/><path class="cls-7" d="M349.71,271.25c.28-4.07,2.32-11.73,6.81-15.43h0c-.68,2.63,1.93,6.07,5.28,5.71a276.21,276.21,0,0,0,38.63-6.86l.12.46a1.66,1.66,0,0,0-1.11,1.21l-8,44.78c-12.88-4.25-41.75-26.16-41.75-29C349.68,271.88,349.69,271.58,349.71,271.25Z"/><path class="cls-4" d="M311.42,450.51c-.81-3.3-1.89-7.31-3.06-11.59l.18-.05.07,0a4.06,4.06,0,0,1,1.84.22,15.51,15.51,0,0,1,1.67.52,5,5,0,0,1,2.78,2.35c1,2.07,0,4.6-1.45,6.37C312.8,449.07,312.12,449.81,311.42,450.51Z"/><path class="cls-7" d="M284.75,313.73a91.08,91.08,0,0,0-6-8.07c23-17.2,42.25-27.32,70.92-34.41h0c0,.33,0,.63,0,.91,0,2.81,28.87,24.72,41.75,29l8-44.78a1.66,1.66,0,0,1,1.11-1.21,2.2,2.2,0,0,1,.37-.07l.08,1.1a1419.77,1419.77,0,0,1,28.58,142A286.68,286.68,0,0,0,419.46,429c-2.63,10-4.23,21.75,2.39,29.68,4.58,5.48,14.93,7.6,21.82,9.45l.39.27a597.37,597.37,0,0,0-37.35,62.84c-9.38-19.19-19.34-38.31-32.94-54.79s-35.33-31.65-56.13-37.32a6.43,6.43,0,0,0-2.08-1.15,6.84,6.84,0,0,0-3.67-.16,9.85,9.85,0,0,0-3.28,1.05l-.07,0-.18.05c-2.4-8.7-5.21-18.49-7-25.49,5.92-2.17,13.56-9.21,15.71-15s2.52-12.31,2.74-18.6c.41-11.31.49-22.76-2.14-33.77s-7.8-22.29-17.34-28.38c-7-4.48-15-5-14.67-4.56Z"/><path class="cls-8" d="M274.06,693.17a151.78,151.78,0,0,1-9.51-44.4h0l18-4.49c4.12,15.77,6.92,33.76,5.84,46.57-.29,3.41-.33,7.57-2.53,9.69-1.57.5-3,.91-4.33,1.23a7.61,7.61,0,0,1-4-2.22A17.92,17.92,0,0,1,274.06,693.17Z"/><path class="cls-1" d="M223.44,549.17c-14.35,15.88-29.33,33-43.69,48.83l-.63-.15-.69.17c-4.24-16.73-8.27-33.11-11.37-49-2.75-.64-15.72-5.3-33.45-11.81,31.78-23.27,71.69-47.78,106.47-66.08-1.51,4.73-.45,9.19,3.53,12.16s31.59-.87,39.94-4.49c10.26-4.45,21-9.44,28.59-17.9a30.45,30.45,0,0,0,4.68-6.59,35,35,0,0,0,3-6.93,9,9,0,0,0-.35-5.92,6.66,6.66,0,0,0-1.87-2.37c20.8,5.67,42.41,20.7,56.13,37.32s23.56,35.6,32.94,54.79q-3.18,6.07-6.28,12.21c-12.95,25.61-25,51.83-37.65,78-10.64,22-19.8,39.93-28.58,59.34-3.88,1.74-32.27,14.75-48.36,19.77,2.2-2.12,2.24-6.28,2.53-9.69,1.08-12.81-1.72-30.8-5.84-46.57-3.31-12.65-7.46-23.87-11.15-29.82-1.86-3-3.59-4.65-5-4.51l-.28,0c-4.15.54-4.42,4-4.44,5.76-1.82.19-3.73.36-5.7.52v-.1c-7.71-1-24.51-5-40.57-9.07q3.67-28.73,8-57.36l.12-.59Z"/><path class="cls-2" d="M290.05,463a244.12,244.12,0,0,1-25.73,9,93.47,93.47,0,0,1-10.3,2.46l-1.54.28-.2-1-1.71-9.76q-1-5.85-2-11.7l-.26-.81c8.84-2.84,17.67-5.69,26.54-8.45,4.07-1.26,9.46-1.93,12.12-5.65,2.21-3.09,1.77-8.42,2.16-12.12l.81-7.86H287a10.33,10.33,0,0,0,2.15-.23,7.84,7.84,0,0,0,3.38-2.53,32.79,32.79,0,0,0,1.71-5.52l.59.15c1.5,1.85,4.19,3.3,6.33,4.34l.26-.1c1.75,7,4.56,16.79,7,25.49,1.17,4.28,2.25,8.29,3.06,11.59C305.49,456.45,297.82,459.81,290.05,463Z"/><path class="cls-4" d="M250.57,463.91l1.71,9.76.2,1c-1.44.25-3.13.44-4.16-.19a1.15,1.15,0,0,1-.42-.37c-1.68-3.07-1.26-7.75,1.4-9.24.33-.18,1.1-.67,1.1-1Z"/><path class="cls-8" d="M312.14,460.9c-7.62,8.46-18.33,13.45-28.59,17.9-8.35,3.62-36,7.46-39.94,4.49s-5-7.43-3.53-12.16a10.94,10.94,0,0,1,8.95-7.39c1-.11,1.37,0,1.37.2s-.77.79-1.1,1c-2.66,1.49-3.08,6.17-1.4,9.24a1.15,1.15,0,0,0,.42.37c1,.63,2.72.44,4.16.19l1.54-.28a93.47,93.47,0,0,0,10.3-2.46,244.12,244.12,0,0,0,25.73-9c7.77-3.17,15.44-6.53,21.37-12.47.7-.7,1.38-1.44,2-2.22,1.48-1.77,2.45-4.3,1.45-6.37a5,5,0,0,0-2.78-2.35,15.51,15.51,0,0,0-1.67-.52,4.06,4.06,0,0,0-1.84-.22,9.85,9.85,0,0,1,3.28-1.05,6.84,6.84,0,0,1,3.67.16,6.43,6.43,0,0,1,2.08,1.15,6.66,6.66,0,0,1,1.87,2.37,9,9,0,0,1,.35,5.92,35,35,0,0,1-3,6.93A30.45,30.45,0,0,1,312.14,460.9Z"/><path class="cls-4" d="M250.47,416.57c-3.26,4.93-13.08,23.36-16.44,26.3s-8.52,4.37-12.35,2.07c-1.14-.68-12.79-12.5-17.67-17.46-2.69-2.73-9.48-8.52-1.68-7.38a101.12,101.12,0,0,0,33.53-.76c2.75-.52,12.21-2.7,14.11-3.4A.42.42,0,0,1,250.47,416.57Z"/><path class="cls-2" d="M194.93,666.13c-3.28-15.78-7.15-31.45-11.08-46.88L185,619c.31-.6,42.4-.39,71-2.72,2-.16,3.88-.33,5.7-.52,3.62-.37,6.92-.79,9.75-1.27h0c3.69,5.95,7.84,17.17,11.15,29.82l-18,4.49-8.9,2.23-1.21.3h0L195.47,666Z"/><path class="cls-6" d="M186,310.16A57.17,57.17,0,0,1,218,297l0-.2c2-1,4.06-2,6.24-3,5.88-2.64,12.35-4.95,18.24-5.67a36.55,36.55,0,0,1,14.1.6c6.59,1.81,12.13,6.25,16.93,11.11q2.77,2.82,5.29,5.86a91.08,91.08,0,0,1,6,8.07l.95-.64c-.34-.42,7.65.08,14.67,4.56,9.54,6.09,14.7,17.38,17.34,28.38s2.55,22.46,2.14,33.77c-.22,6.29-.57,12.7-2.74,18.6s-9.79,12.86-15.71,15l-.26.1c-2.14-1-4.83-2.49-6.33-4.34l-.59-.15c2.51-9.7,6.69-29.82,6.5-42.16,0-1.29-.28-2.95-1.53-3.24-4.21-1-16,10.15-16.28,10.49h0c-1.15,1.5-2.58,2.73-3.74,4.24a18.69,18.69,0,0,1-4,4.2,6.36,6.36,0,0,1-5.5,1.07c-3.24-1.1-4.24-5.11-4.75-8.49-1.23-8.26-3.66-24.63-3.62-24.34-.71-10.61-10.36-17.48-19.53-22.89-17-10-36.41-19.42-55.7-17.05Z"/><path class="cls-4" d="M254.42,651.3c-17.67,9.3-53.65,32-55.88,33.7q-1.64-9.45-3.61-18.87l.54-.11Z"/><path class="cls-7" d="M218,297a57.17,57.17,0,0,0-32,13.17l.09.72a45.6,45.6,0,0,0-5,.88c-6,1.38-12,4.34-14.83,9.79a17.67,17.67,0,0,0-1.7,5.92c-9-10.31-14.3-17.14-20.36-27.6h0c9.63-7,26.71-24.44,35.82-37.83,3.32-4.88,6.7-10.38,6.8-16.12,11.41,16.65,24.76,32.11,37.37,47.85-2.18,1-4.28,2-6.24,3Z"/><path class="cls-4" d="M255.92,616.25c-28.56,2.33-70.65,2.12-71,2.72l-1.11.28q-2.72-10.69-5.42-21.23l.69-.17.63.15c5.34,1.31,20.12,5.2,35.59,9.08,16.06,4,32.86,8,40.57,9.07Z"/><path class="cls-2" d="M235.86,419.34a101.12,101.12,0,0,1-33.53.76c-7.8-1.14-1,4.65,1.68,7.38,4.88,5,16.53,16.78,17.67,17.46,3.83,2.3,9,.87,12.35-2.07s13.18-21.37,16.44-26.3a.42.42,0,0,0-.5-.63C248.07,416.64,238.61,418.82,235.86,419.34Zm-58.23-60.55a3.16,3.16,0,0,0,2.21-1.78,3.48,3.48,0,0,0-.08-2.91c-3-5.63-.68-14,4.41-17.81s11.8-4.77,18.17-4.73a45.16,45.16,0,0,1,16.73,2.94c5.27,2.15,13.93,10.91,13.93,10.91,4.68,2.67,7.88,4.49,12.67,5.92a24.9,24.9,0,0,0,15.64-.51c0-.29,2.39,16.08,3.62,24.34.51,3.38,1.51,7.39,4.75,8.49a6.36,6.36,0,0,0,5.5-1.07,18.69,18.69,0,0,0,4-4.2c1.16-1.51,2.59-2.74,3.74-4.24h0c.26-.34,12.07-11.45,16.28-10.49,1.25.29,1.51,1.95,1.53,3.24.19,12.34-4,32.46-6.5,42.16a32.79,32.79,0,0,1-1.71,5.52,7.84,7.84,0,0,1-3.38,2.53,10.33,10.33,0,0,1-2.15.23h2.91l-.81,7.86c-.39,3.7.05,9-2.16,12.12-2.66,3.72-8.05,4.39-12.12,5.65-8.87,2.76-17.7,5.61-26.54,8.45-6.72,2.15-13.45,4.29-20.2,6.35a24.8,24.8,0,0,1-25-5.92c-4.94-4.84-7.8-11.06-11.06-17.06-5.31-9.74-11.16-19.36-15.21-29.72a55.11,55.11,0,0,1-2.8-30.41c.52-2.64,2.53-12.92,3-15.57a3.55,3.55,0,0,0,.61-.32Zm27.79,44.43c.51,2.08,2.57,2,2.45-.15a11.87,11.87,0,0,0-.29-2.31c-.08-.31-.36-1.09-.36-1.09a1.18,1.18,0,0,0-.78-.59c-.65-.25-1.1.41-1.21.61C204.76,400.55,205.16,402.17,205.42,403.22ZM227,401.79c.51,2.07,2.57,1.95,2.45-.16a12.69,12.69,0,0,0-.29-2.31c-.09-.31-.36-1.09-.36-1.09a1.18,1.18,0,0,0-.78-.59c-.66-.25-1.1.41-1.21.61C226.33,399.11,226.73,400.73,227,401.79Z"/><path class="cls-6" d="M233,345.41s-8.66-8.76-13.93-10.91a45.16,45.16,0,0,0-16.73-2.94c-6.37,0-13.08.9-18.17,4.73s-7.4,12.18-4.41,17.81a3.48,3.48,0,0,1,.08,2.91,3.16,3.16,0,0,1-2.21,1.78l0,0a3.55,3.55,0,0,1-.61.32h0c-2.44,1-5.6,0-7.47-2-2.13-2.28-3-5.46-3.56-8.53a87.5,87.5,0,0,1-1.62-15.81,38.67,38.67,0,0,1,.24-5.27,17.67,17.67,0,0,1,1.7-5.92c2.79-5.45,8.87-8.41,14.83-9.79a45.6,45.6,0,0,1,5-.88c19.29-2.37,38.68,7,55.7,17.05,9.17,5.41,18.82,12.28,19.53,22.89a24.9,24.9,0,0,1-15.64.51C240.88,349.9,237.68,348.08,233,345.41Z"/><path class="cls-7" d="M186.83,245.91c-.1,5.74-3.48,11.24-6.8,16.12-9.11,13.39-26.19,30.79-35.82,37.83h0c-2.75,2-4.89,3.18-6.07,3.18-3.45,0-23.19-23.29-21.1-28.67a1.56,1.56,0,0,1,.84-.89c3.37-1.52,10.37-5.13,15.91-8.38a62.2,62.2,0,0,0,6.35-4.11A75.83,75.83,0,0,0,158,240.92c.34-.55,1-1.74,1.9-3.3,2.59-4.67,6.74-12.67,7.46-17a1,1,0,0,1,.34-.62,1,1,0,0,1,1.32.09l9.41,10c3.55,3.77,7.24,7.85,8.17,12.94A14.41,14.41,0,0,1,186.83,245.91Z"/><path class="cls-4" d="M155.27,229.08a68.78,68.78,0,0,1,12-9.18l.4.09a1,1,0,0,0-.34.62c-.72,4.34-4.87,12.34-7.46,17l-.78-.1C158,235,156.71,232.15,155.27,229.08Z"/><path class="cls-2" d="M120.2,250c1.32-11.85,3-28.53,3.38-38.27,5.49-1.74,13.36-6.18,15.44-9.81a7.64,7.64,0,0,0,.75-2.4l.42.08c4.43,7.43,10.4,19.45,15.08,29.45,1.44,3.07,2.75,5.94,3.86,8.44l.78.1c-.86,1.56-1.56,2.75-1.9,3.3A75.83,75.83,0,0,1,140.14,261a62.2,62.2,0,0,1-6.35,4.11l-.49-.84c-1.83-2-3.67-4.06-5.53-6.07Q124,254.09,120.2,250Z"/><path class="cls-2" d="M116.88,200.36c6.66-1.06,16.54-15.07,10.09-21.19.14-2.11.27-4.3.39-6.5,4.13,1.94,8.23,4.4,10.68,8.25,2,3.11,2.68,13.39,1.73,18.63A7.64,7.64,0,0,1,139,202c-2.08,3.63-10,8.07-15.44,9.81a13.07,13.07,0,0,1-3.89.75,8.38,8.38,0,0,1-5.33-2.1C113.25,209.54,110.67,201.34,116.88,200.36Z"/><path class="cls-4" d="M117.88,273.49a1.56,1.56,0,0,0-.84.89l-.16-.07c.5-3.19,9.59-15.78,10.38-15.64l.51-.47c1.86,2,3.7,4,5.53,6.07l.49.84C128.25,268.36,121.25,272,117.88,273.49Z"/><path class="cls-1" d="M127.69,166.78c-20,12.64-46.59,14.55-65.5.51-.37-2.6-.76-5.19-1.18-7.79l.28,0c12.95,13.21,53.87,9.15,66.92-1.65C128,160.7,127.86,163.73,127.69,166.78Z"/><path class="cls-1" d="M128.21,157.81c-13.05,10.8-54,14.86-66.92,1.65a92.91,92.91,0,0,1,25.92-6.86c2,.05,4.08,0,6.1-.15,1.63-.12,3.26-.26,4.9-.43a82.36,82.36,0,0,1,30,5.78Z"/><path class="cls-2" d="M68.76,193.23C78,194.68,105,195.56,105,200.84c0,4.39-10.69,5.16-16.12,5.55-2.73.2-13.24.67-19.67,1.33a.1.1,0,0,0,0,.19c9,1,18.74,1.38,26.23,3.29,1.85.47,7,4.15,6.21,5.9-1.16,2.67-7.88,3.29-12.52,3.61-7.21.51-16.25.9-23.48.67,7.21.45,15.08,1.33,21.42,3.24,1.86.56,13.7,4.21,6.7,7.79-1.31.67-13.19.74-23.76.31-8.11-.33-15.44-.95-16.62-1.82-3.22-2.39-4-4-3.22-6.28.66-1.88,3.84-3,6.49-3.23a.29.29,0,0,0,.07-.56c-2.37-.87-5.59-.72-7.07-2.57-1.79-2.22-2.73-5.19-.76-7.25,1.4-1.46,4.48-3.29,6.54-3.16a.22.22,0,0,0,.1-.42c-3.17-1.27-6.86-1.25-9.74-3.39a5.59,5.59,0,0,1-2.31-3.75c-.46-4,4.14-6.37,7.94-7.59-12.47-7.28.15-18.3,10.37-15.6.31.08.82.2,1.49.34,7,1.56,31.62,6.36,33.41,7.28,2.75,1.42,5.16,4.95,1.4,7.36a12.67,12.67,0,0,1-3.68,1.45C86.58,194.7,76.75,192.59,68.76,193.23Z"/><path class="cls-6" d="M105,200.84c0-5.28-27-6.16-36.25-7.61,8-.64,17.82,1.47,25.67.3a12.67,12.67,0,0,0,3.68-1.45c3.76-2.41,1.35-5.94-1.4-7.36-1.79-.92-26.41-5.72-33.41-7.28l.16-.73q-.59-4.71-1.27-9.42c18.91,14,45.54,12.13,65.5-.51l-.33,5.89c-.12,2.2-.25,4.39-.39,6.5,6.45,6.12-3.43,20.13-10.09,21.19-6.21,1-3.63,9.18-2.52,10a8.38,8.38,0,0,0,5.33,2.1,13.07,13.07,0,0,0,3.89-.75c-.37,9.74-2.06,26.42-3.38,38.27-.87,7.75-1.57,13.44-1.63,13.77-1.5,7.73-36.81,11.33-41.21,4C76.87,267,72.09,242.36,70,233v-.27c10.57.43,22.45.36,23.76-.31,7-3.58-4.84-7.23-6.7-7.79-6.34-1.91-14.21-2.79-21.42-3.24,7.23.23,16.27-.16,23.48-.67,4.64-.32,11.36-.94,12.52-3.61.76-1.75-4.36-5.43-6.21-5.9-7.49-1.91-17.19-2.26-26.23-3.29a.1.1,0,0,1,0-.19c6.43-.66,16.94-1.13,19.67-1.33C94.32,206,105,205.23,105,200.84Z"/><path class="cls-2" d="M14.08,559.4c20.19,5,53.76,23.27,54.49,24.63s-1,2.41-2.36,2.08c-15.12-3.67-30.13-8-44.47-14,13,6.2,25.5,13.33,38,20.44,5.63,3.2,17.67,10.3,22.75,14.27a1.53,1.53,0,0,1-1.09,2.73,28.67,28.67,0,0,1-7.65-2.2Q48,597.2,21.77,588.19L51.6,601.46c6.83,3,13.82,6.19,19.19,11.4.77.74,1.83,2.07.76,2.83-2.61,1.86-30.77-8.42-44.89-13.58a266,266,0,0,1,26.53,17.44,1.59,1.59,0,0,1-.82,2.76c-2,.35-11.4-3.15-21.08-7.08-7.32-3-14.81-6.19-19.36-8.18h0c-2.31-1-5.21-2.61-5.13-4.33.09-2.12,3.5-3.58,5.29-3.93a.23.23,0,0,0,.07-.43c-3.18-2-6-3.29-8-6.44a5.85,5.85,0,0,1,0-5.85c.74-1.21,5.24-2.72,7.35-3.1a.24.24,0,0,0,.1-.42c-2-1.74-6.18-3.46-6-6.51s4-4.08,5.2-4.09c.19,0,.33-.26.18-.39-2-1.74-4.4-4-4.43-6.69s3.83-6.05,6.53-5.69Z"/><path class="cls-4" d="M194.93,666.13q2,9.4,3.61,18.87c-55.6-11.59-110.28-30.55-162.86-52.8-1.06-3.88-3.34-13.08-4.39-17,9.68,3.93,19.09,7.43,21.08,7.08a1.59,1.59,0,0,0,.82-2.76,266,266,0,0,0-26.53-17.44c14.12,5.16,42.28,15.44,44.89,13.58,1.07-.76,0-2.09-.76-2.83-5.37-5.21-12.36-8.35-19.19-11.4L21.77,588.19q26.21,9,52,19.19a28.67,28.67,0,0,0,7.65,2.2,1.53,1.53,0,0,0,1.09-2.73c-5.08-4-17.12-11.07-22.75-14.27-12.51-7.11-25-14.24-38-20.44,14.34,6,29.35,10.3,44.47,14,1.4.33,3.07-.76,2.36-2.08s-34.3-19.62-54.49-24.63l.09-.36a482.47,482.47,0,0,1-13-70.12c24.31,8,91.24,33.16,132.45,48.29,17.73,6.51,30.7,11.17,33.45,11.81,3.1,15.89,7.13,32.27,11.37,49q2.69,10.53,5.42,21.23C187.78,634.68,191.65,650.35,194.93,666.13Z"/><path class="cls-10" d="M589.07,393.48c1.91,2.37,4.19,4.94,8.09,3.3a8.57,8.57,0,0,0,3.82-3.33L628.12,351a.2.2,0,0,0-.29-.27c-3.46,2.54-11.48,4.37-14.49,5.26a84.3,84.3,0,0,1-17.83,3.24c-9,.66-22.38.76-31.3-3.46a.56.56,0,0,0-.69.85C567.48,361.67,583.83,386.94,589.07,393.48Z"/><path class="cls-11" d="M606.93,334.52c3.47-10.2,36.77-11.43,39.24,1.24"/><path class="cls-11" d="M549.13,334.76a26,26,0,0,1,35.36-.54"/><path class="cls-11" d="M668.89,333.89c4.61-6,18.63-9.42,20.4-8.22,1.22.82,1,13.19-.51,17.66-3.41,10.15-6.39,20.57-11.87,29.77-.85,1.42-1.95,2.95-3.59,3.22-2.12.35-4.74-1.13-5.91-2.93-.22-.34-.43-.7-.62-1.06-1.32-2.53-1.89-5.47-2.83-8.18"/><path class="cls-10" d="M522.25,328.43c-.22-.3-.45-.58-.69-.86-7.13-8.36-21-6.19-23.06-3.72-1,1.2,2.92,21.16,5.24,29.41,2.57,9.13,4.46,16.73,10.21,24.27,1.23,1.62,4.14,4,5.87,3a51.28,51.28,0,0,0,5.53-8.21,32.08,32.08,0,0,0,2.13-4.52"/><path class="cls-10" d="M525.79,372.54c9.48,10.21,27.25,19.93,42.24,26.8,13.22,6.08,24.26,9.93,25.54,10s14.83-4.17,30.29-10.66c16.44-6.91,34.89-16.4,42.38-26.12"/><path class="cls-10" d="M521.57,327.56a61.78,61.78,0,0,0,30.32-8.06,112.35,112.35,0,0,0,48.4-55.09.84.84,0,0,1,1.6.13c6,26.5,50,63.15,67,69.36l.85.29"/><path class="cls-10" d="M566.68,401.87a13.22,13.22,0,0,0-.34,2.59c-.22,3.71-.44,7.41-.67,11.12,0,.55-.06,1.1-.1,1.66q-.41,6.94-.83,13.9"/><path class="cls-10" d="M624,399h0c.06.21,1.18,6.66,2.39,13.5l.54,3.1c1.19,6.72,2.29,12.95,2.37,13.11"/><path class="cls-10" d="M624,399.24c0-.17,0-.25,0-.26"/><path class="cls-10" d="M565.58,417.24h0c-3.89,1.68-7.71,3.32-7.75,7.56a6.51,6.51,0,0,0,4,6.34c.89.29,1.78.57,2.68.82,11.91,3.4,24.55,3.43,36.65,2.28,6.82-.64,13.47-1.66,19.71-2.67a21.67,21.67,0,0,0,8.43-2.88c2.51-1.62,4.5-4.34,4.49-7.33s-3.55-6-6.53-5.84"/><path class="cls-10" d="M600.29,264.41a76.87,76.87,0,0,1,2.28-26c2.5-8.94,7-16.17,13.84-17.32,10.14-1.69,19.56.57,28.37,4.89,13.9,6.82,21.17,17.25,30.8,29.38A680.86,680.86,0,0,1,728,331.63q1.13,1.89,2.24,3.8c15,25.61,28.37,52.24,38.29,80.2,1.16,3.27,2.28,6.8,1.37,10.15-1,3.8-4.43,6.42-7.61,8.75l-19.39,14.2"/><path class="cls-10" d="M602.5,238.35c-7.43-12.57-16.88-16.28-24.86-20.25-8.23-4.09-21.55-3.22-30.55-1.35-14.27,3-24.28,15.48-32.69,27.38l-.71,1A796.91,796.91,0,0,0,442,369.4c-4.38,9.47-8.57,19-12.35,28.76A286.68,286.68,0,0,0,419.46,429c-2.63,10-4.23,21.75,2.39,29.68,4.58,5.48,14.93,7.6,21.82,9.45"/><path class="cls-10" d="M651,423.11a23,23,0,0,0-3.92-3.48c-5.73-4-13.59-5.65-20.41-7.2"/><path class="cls-10" d="M546.66,426.74c-.22.4-.42.81-.61,1.21-2.91,6.33-3.91,14.11-.08,19.93.52.78,1.06,1.54,1.63,2.28,3.65,4.77,8.3,8.75,12.91,12.65l20.65,17.53c8.15-14.45,13.11-29.46,19.21-45.2l.09-.23a.77.77,0,0,1,1.44,0A322.44,322.44,0,0,0,623.33,483q11.32-14.91,22.64-29.81l3.83-5c2.47-3.26,5-6.67,5.82-10.68a14.69,14.69,0,0,0-.86-8.34c-.07-.16-.14-.32-.2-.48a20.64,20.64,0,0,0-3.58-5.56"/><path class="cls-10" d="M547.58,425.26c-.29.42-.55.84-.79,1.26"/><path class="cls-10" d="M564.74,415.52c-6-.75-13.24,4-17.14,9.7"/><path class="cls-10" d="M767.08,620.55q3-11.2,6.16-22.62H430.59q1.8,10.58,3.71,21.12,4.17,23.12,8.86,46.12,6,29.46,13,58.7,9.24,38.52,20.48,76.57c19.31.47,36.45,1,55.69-.66H726.17c5.37-27.67,10.84-54.15,16.66-80.3,4-18.17,8.28-36.18,12.76-54.32C759.23,650.43,763,635.61,767.08,620.55Z"/><path class="cls-10" d="M601.06,435.41c-2.51,54.28-1.81,108-1.4,162.37"/><path class="cls-10" d="M646,453.23c-5.66,48.46-10.55,95.23-15,143.81"/><path class="cls-10" d="M651,423.11v0q1.9,3.11,3.78,6c12.85,20.27,24.47,35.74,35.52,58.17-4.65,4.23-12.46,10.33-16.31,14.26,5.73,3.88,17.26,8.69,23,12.56-10.91,27.1-23.11,56.42-33.38,83.77"/><path class="cls-10" d="M547.6,425.22l0,0c-.26.42-.52.84-.79,1.26l-.13.22c-.7,1.11-1.41,2.22-2.15,3.33-13.81,20.91-33.65,41.52-46.44,62.47l23.56,12q-7.25,9.6-14.5,19.18A299.27,299.27,0,0,1,543.4,597"/><path class="cls-10" d="M547.6,450.16c9.53,46.63,18.27,100.05,27,146.84"/><path class="cls-10" d="M875,699.43q2.26,5.28,4.44,10.58c5.15,12.53-4.06,28.8-17.41,26.58-43.79-7.3-74.88-7.64-119.17-17.11"/><path class="cls-10" d="M654.56,428.69c20.05-.81,53.72-2.72,72.8,6.33,7.57,3.59,11.5,8.39,15.51,13.71l2.49,3.29c23.29,30.58,41.62,63.59,58.55,97.56,11.79,23.65,22.9,47.76,34.55,71.84,12.57,26,25.32,51.92,36.51,78"/><path class="cls-10" d="M544.51,430.07c-23.3-.82-52-4.95-70.62,4.95-7.35,3.9-13,10.39-18,17q-6.13,8.06-11.83,16.34a597.37,597.37,0,0,0-37.35,62.84q-3.18,6.07-6.28,12.21c-12.95,25.61-25,51.83-37.65,78-10.64,22-19.8,39.93-28.58,59.34-4,8.74-7.84,17.77-11.74,27.6A18.77,18.77,0,0,0,339.93,734c39.44,0,72.93-5,116.24-10.16"/><path class="cls-10" d="M718.87,531.7a305,305,0,0,0,14.7,31.73c5.38,10.24,11.08,20.33,18,34.5"/><path class="cls-10" d="M767.72,620.72c8.73,14.48,27.51,38.14,36.25,52.62-24.18-4.33-36.89-5.28-48.35-8.17"/><path class="cls-10" d="M447.64,597.93l18.67-39.32,10-21.07"/><path class="cls-10" d="M434.3,619.05c-12.39,20-17.12,30.17-31.56,54.29,20.21-2.45,22.64-3.79,40.42-8.17h0"/><path class="cls-10" d="M466.31,558.61l11.63,39.32"/><path class="cls-10" d="M733.49,563.47q-4.17,17.12-7.94,34.31"/><path class="cls-10" d="M221.68,444.94c3.83,2.3,9,.87,12.35-2.07s13.18-21.37,16.44-26.3a.42.42,0,0,0-.5-.63c-1.9.7-11.36,2.88-14.11,3.4a101.12,101.12,0,0,1-33.53.76c-7.8-1.14-1,4.65,1.68,7.38C208.89,432.44,220.54,444.26,221.68,444.94Z"/><path class="cls-11" d="M282.91,374.13c.26-.34,12.07-11.45,16.28-10.49,1.25.29,1.51,1.95,1.53,3.24.19,12.34-4,32.46-6.5,42.16a32.79,32.79,0,0,1-1.71,5.52,7.84,7.84,0,0,1-3.38,2.53,10.33,10.33,0,0,1-2.15.23h0A11,11,0,0,1,279,414"/><path class="cls-11" d="M280,387a22,22,0,0,1,8.67-8.66,2.14,2.14,0,0,1,2.12-.27c.67.42.68,1.38.6,2.17a120.35,120.35,0,0,1-6.21,28.55c-.1.3-.25.65-.56.74a1,1,0,0,1-.77-.21,4.45,4.45,0,0,1-1.92-3.34"/><path class="cls-10" d="M289.89,417.32l-.81,7.86c-.39,3.7.05,9-2.16,12.12-2.66,3.72-8.05,4.39-12.12,5.65-8.87,2.76-17.7,5.61-26.54,8.45-6.72,2.15-13.45,4.29-20.2,6.35a24.8,24.8,0,0,1-25-5.92c-4.94-4.84-7.8-11.06-11.06-17.06-5.31-9.74-11.16-19.36-15.21-29.72a55.11,55.11,0,0,1-2.8-30.41c.52-2.64,2.53-12.92,3-15.57"/><path class="cls-10" d="M248.52,452.21q1,5.85,2,11.7l1.71,9.76"/><path class="cls-10" d="M311.42,450.51c-.81-3.3-1.89-7.31-3.06-11.59-2.4-8.7-5.21-18.49-7-25.49-.09-.35-.18-.7-.26-1"/><path class="cls-10" d="M301.14,413.53l.26-.1c5.92-2.17,13.56-9.21,15.71-15s2.52-12.31,2.74-18.6c.41-11.31.49-22.76-2.14-33.77s-7.8-22.29-17.34-28.38c-7-4.48-15-5-14.67-4.56,0,0,0,0,0,0"/><path class="cls-10" d="M177,359.07c-2.44,1-5.6,0-7.47-2-2.13-2.28-3-5.46-3.56-8.53a87.5,87.5,0,0,1-1.62-15.81,38.67,38.67,0,0,1,.24-5.27,17.67,17.67,0,0,1,1.7-5.92c2.79-5.45,8.87-8.41,14.83-9.79a45.6,45.6,0,0,1,5-.88c19.29-2.37,38.68,7,55.7,17.05,9.17,5.41,18.82,12.28,19.53,22.89"/><path class="cls-10" d="M178,358.52l-.35.23a3.55,3.55,0,0,1-.61.32"/><path class="cls-10" d="M272,340.51a52.54,52.54,0,0,0-32.93-40.9A48.52,48.52,0,0,0,218,297a57.17,57.17,0,0,0-32,13.17"/><path class="cls-10" d="M293.21,329.73a93,93,0,0,0-8.46-16,91.08,91.08,0,0,0-6-8.07q-2.52-3-5.29-5.86c-4.8-4.86-10.34-9.3-16.93-11.11a36.55,36.55,0,0,0-14.1-.6c-5.89.72-12.36,3-18.24,5.67-2.18,1-4.28,2-6.24,3"/><path class="cls-10" d="M308.54,438.87l.07,0a4.06,4.06,0,0,1,1.84.22,15.51,15.51,0,0,1,1.67.52,5,5,0,0,1,2.78,2.35c1,2.07,0,4.6-1.45,6.37-.65.78-1.33,1.52-2,2.22-5.93,5.94-13.6,9.3-21.37,12.47a244.12,244.12,0,0,1-25.73,9,93.47,93.47,0,0,1-10.3,2.46l-1.54.28c-1.44.25-3.13.44-4.16-.19a1.15,1.15,0,0,1-.42-.37c-1.68-3.07-1.26-7.75,1.4-9.24.33-.18,1.1-.67,1.1-1s-.34-.31-1.37-.2a10.94,10.94,0,0,0-8.95,7.39c-1.51,4.73-.45,9.19,3.53,12.16s31.59-.87,39.94-4.49c10.26-4.45,21-9.44,28.59-17.9a30.45,30.45,0,0,0,4.68-6.59,35,35,0,0,0,3-6.93,9,9,0,0,0-.35-5.92,6.66,6.66,0,0,0-1.87-2.37,6.43,6.43,0,0,0-2.08-1.15,6.84,6.84,0,0,0-3.67-.16,9.85,9.85,0,0,0-3.28,1.05"/><path class="cls-10" d="M261.62,616.15v-.42c0-1.72.29-5.22,4.44-5.76l.28,0c1.45-.14,3.18,1.52,5,4.51,3.69,5.95,7.84,17.17,11.15,29.82,4.12,15.77,6.92,33.76,5.84,46.57-.29,3.41-.33,7.57-2.53,9.69a4.66,4.66,0,0,1-1.72,1.05,5.26,5.26,0,0,1-2.61.18,7.61,7.61,0,0,1-4-2.22,17.92,17.92,0,0,1-3.45-6.37,151.78,151.78,0,0,1-9.51-44.4"/><path class="cls-10" d="M317.64,439.09c20.8,5.67,42.41,20.7,56.13,37.32s23.56,35.6,32.94,54.79c.09.17.17.33.25.5"/><path class="cls-10" d="M349.18,483c22.37,15.91,36.87,37,51.25,60.37"/><path class="cls-10" d="M265.4,610.16l.66-.19C283.6,604.9,349.3,585,358.8,584.7c-1.95-3.78-22.18-45.17-37.68-68.1"/><path class="cls-10" d="M13.9,607.85c-.51-.2-1.21-.48-2-.81-2.31-1-5.21-2.61-5.13-4.33.09-2.12,3.5-3.58,5.29-3.93a.23.23,0,0,0,.07-.43c-3.18-2-6-3.29-8-6.44a5.85,5.85,0,0,1,0-5.85c.74-1.21,5.24-2.72,7.35-3.1a.24.24,0,0,0,.1-.42c-2-1.74-6.18-3.46-6-6.51s4-4.08,5.2-4.09c.19,0,.33-.26.18-.39-2-1.74-4.4-4-4.43-6.69s3.83-6.05,6.53-5.69a2,2,0,0,1,.48.1"/><path class="cls-10" d="M12.68,559.07l.42.1,1,.23c20.19,5,53.76,23.27,54.49,24.63s-1,2.41-2.36,2.08c-15.12-3.67-30.13-8-44.47-14,13,6.2,25.5,13.33,38,20.44,5.63,3.2,17.67,10.3,22.75,14.27a1.53,1.53,0,0,1-1.09,2.73,28.67,28.67,0,0,1-7.65-2.2Q48,597.2,21.77,588.19L51.6,601.46c6.83,3,13.82,6.19,19.19,11.4.77.74,1.83,2.07.76,2.83-2.61,1.86-30.77-8.42-44.89-13.58a266,266,0,0,1,26.53,17.44,1.59,1.59,0,0,1-.82,2.76c-2,.35-11.4-3.15-21.08-7.08-7.32-3-14.81-6.19-19.36-8.18l-.73-.32"/><path class="cls-10" d="M31.29,615.23c1.05,3.89,3.33,13.09,4.39,17,52.58,22.25,107.26,41.21,162.86,52.8q-1.64-9.45-3.61-18.87c-3.28-15.78-7.15-31.45-11.08-46.88q-2.72-10.69-5.42-21.23c-4.24-16.73-8.27-33.11-11.37-49-2.75-.64-15.72-5.3-33.45-11.81C92.4,522.08,25.47,497,1.16,488.92a482.47,482.47,0,0,0,13,70.12"/><path class="cls-10" d="M240.08,471.13c-34.78,18.3-74.69,42.81-106.47,66.08l-.64.46"/><path class="cls-10" d="M231.59,498.78q-4.34,25.15-8.15,50.39c0,.18-.06.36-.08.55q-4.35,28.63-8,57.36c0,.06,0,.11,0,.17"/><path class="cls-10" d="M271.37,614.46c-2.83.48-6.13.9-9.75,1.27-1.82.19-3.73.36-5.7.52-28.56,2.33-70.65,2.12-71,2.72"/><path class="cls-10" d="M254.44,651.29l1.21-.3,8.9-2.23,18-4.49"/><path class="cls-10" d="M195.47,666l58.95-14.72"/><path class="cls-10" d="M193.48,654.65c7.41-2.88,19.16-7.61,20.81-8.16"/><path class="cls-10" d="M190.28,644.17c7.35-2.16,16.95-4.32,23.89-6.39"/><path class="cls-10" d="M188.28,635c9.46-2.81,11.38-3,22.76-5.4"/><path class="cls-10" d="M186,625.56c8.66-1.39,15.36-2.78,25-2.78"/><path class="cls-10" d="M179.75,598c14.36-15.87,29.34-33,43.69-48.83l0,0-.12.59c-.09.48-.19,1-.29,1.43"/><path class="cls-10" d="M198.54,685c2.23-1.67,38.21-24.4,55.88-33.7h0c.21.1.72-.09,1.21-.3.64-.28,1.26-.59,1.15-.31"/><path class="cls-10" d="M179.12,597.85l.63.15c5.34,1.31,20.12,5.2,35.59,9.08,16.06,4,32.86,8,40.57,9.07"/><path class="cls-10" d="M384,220.68c2.55,3,9,2,11-1.34.94-1.56,8.44-24.73,7.61-24.58-6.91,1.3-26.43,3.68-31.78,4.65a.89.89,0,0,0-.63,1.31C372.93,205.68,382.37,218.75,384,220.68Z"/><path class="cls-11" d="M315.11,181.14c-2.77-2.87-12,0-13.19,3.92-1.92,6.54,20,39.76,23.18,39.75,1.56,0,3.71-4.44,5-7.29.53-1.24.9-2.18,1-2.33"/><path class="cls-11" d="M455.85,161.74c3.19-4.17,9.36-8.65,12.39-8.65s5.69,5.94,5.48,8.9c-.65,9-8.28,40.35-11.31,40.26-1.76-.05-2.86-1.15-3.74-2.67a22.39,22.39,0,0,1-1.13-2.3"/><path class="cls-10" d="M330,217.48l0,0a59.58,59.58,0,0,0,22.13,15.17,80.82,80.82,0,0,0,46.15,4.36c13.78-3,28.61-10.12,40.69-18.73,8.23-5.87,15.18-12.41,19.64-18.74"/><path class="cls-10" d="M315.11,181.14c-5.52-9.85,4.63-42.83,33.37-50.14l.5-.13"/><path class="cls-10" d="M439.49,142.27c6.47,5.08,13.24,11.86,16.36,19.47"/><path class="cls-10" d="M436.23,15.42l-.76.81a667,667,0,0,0-87.06,114.68l.07.09c9.13,11.18,24,15.65,38.17,18.34,15.82,3,39.87,2.48,52.84-7.07.5-.36-4.38-45-4.05-68.9q.26-18.27.5-36.53c.08-5.82.62-11.84.24-17.64a9.36,9.36,0,0,0-.48-2.34c-.07-.21-.15-.42-.23-.63-1.3-3.34-3.83-6.37-3.33-9.79.47-3.1,3.65-5.29,6.79-5.43a9.21,9.21,0,0,1,9,6.34,8.87,8.87,0,0,1-4.22,10.09c-1.95,1-4.68,1.07-6-.66"/><path class="cls-10" d="M352.14,232.56s0,.09.05.13c2.32,5.75,5.12,13.56,7.31,20.61.92,2.95,1.72,5.77,2.33,8.24"/><path class="cls-10" d="M444.82,230.74a3.44,3.44,0,0,1,1.49,1.64c.81,2-.09,4.29-1.62,5.77a9.38,9.38,0,0,1-2.38,1.6c-1,.52-2.13.94-3.18,1.41a235.07,235.07,0,0,1-38.67,13.52,276.21,276.21,0,0,1-38.63,6.86c-3.35.36-6-3.08-5.28-5.71a3.41,3.41,0,0,1,2-2.24"/><path class="cls-10" d="M441.12,231a3,3,0,0,1,3.69-.27"/><path class="cls-10" d="M144.21,299.86c9.63-7,26.71-24.44,35.82-37.83,3.32-4.88,6.7-10.38,6.8-16.12a14.41,14.41,0,0,0-.22-2.85c-.93-5.09-4.62-9.17-8.17-12.94l-9.41-10a1,1,0,0,0-1.32-.09,1,1,0,0,0-.34.62c-.72,4.34-4.87,12.34-7.46,17-.86,1.56-1.56,2.75-1.9,3.3A75.83,75.83,0,0,1,140.14,261a62.2,62.2,0,0,1-6.35,4.11c-5.54,3.25-12.54,6.86-15.91,8.38a1.56,1.56,0,0,0-.84.89c-2.09,5.38,17.65,28.67,21.1,28.67,1.18,0,3.32-1.17,6.07-3.18"/><path class="cls-10" d="M63.3,177.44c-.67-.14-1.18-.26-1.49-.34-10.22-2.7-22.84,8.32-10.37,15.6-3.8,1.22-8.4,3.55-7.94,7.59A5.59,5.59,0,0,0,45.81,204c2.88,2.14,6.57,2.12,9.74,3.39a.22.22,0,0,1-.1.42c-2.06-.13-5.14,1.7-6.54,3.16-2,2.06-1,5,.76,7.25,1.48,1.85,4.7,1.7,7.07,2.57a.29.29,0,0,1-.07.56c-2.65.21-5.83,1.35-6.49,3.23-.79,2.24,0,3.89,3.22,6.28,1.18.87,8.51,1.49,16.62,1.82,10.57.43,22.45.36,23.76-.31,7-3.58-4.84-7.23-6.7-7.79-6.34-1.91-14.21-2.79-21.42-3.24,7.23.23,16.27-.16,23.48-.67,4.64-.32,11.36-.94,12.52-3.61.76-1.75-4.36-5.43-6.21-5.9-7.49-1.91-17.19-2.26-26.23-3.29a.1.1,0,0,1,0-.19c6.43-.66,16.94-1.13,19.67-1.33,5.43-.39,16.12-1.16,16.12-5.55,0-5.28-27-6.16-36.25-7.61,8-.64,17.82,1.47,25.67.3a12.67,12.67,0,0,0,3.68-1.45c3.76-2.41,1.35-5.94-1.4-7.36C94.92,183.8,70.3,179,63.3,177.44Z"/><path class="cls-10" d="M127.36,172.67c4.13,1.94,8.23,4.4,10.68,8.25,2,3.11,2.68,13.39,1.73,18.63A7.64,7.64,0,0,1,139,202c-2.08,3.63-10,8.07-15.44,9.81a13.07,13.07,0,0,1-3.89.75,8.38,8.38,0,0,1-5.33-2.1c-1.11-.87-3.69-9.07,2.52-10,6.66-1.06,16.54-15.07,10.09-21.19l-.06-.06"/><path class="cls-10" d="M128.21,157.81c-.18,2.89-.35,5.92-.52,9l-.33,5.89c-.12,2.2-.25,4.39-.39,6.5-.34,5.44-.73,10.42-1.23,14.23"/><path class="cls-10" d="M63.46,176.71q-.59-4.71-1.27-9.42c-.37-2.6-.76-5.19-1.18-7.79q-1.27-8-2.82-16a.15.15,0,0,1,.24-.14c8.08,6.31,18.44,9,28.78,9.25,2,.05,4.08,0,6.1-.15,1.63-.12,3.26-.26,4.9-.43,10.63-1.1,21.26-3.44,30.77-8.18a.3.3,0,0,1,.4.32c-.47,3.71-.84,8.47-1.17,13.64"/><path class="cls-10" d="M70,233c2.08,9.37,6.86,34,7.35,34.79,4.4,7.35,39.71,3.75,41.21-4,.06-.33.76-6,1.63-13.77,1.32-11.85,3-28.53,3.38-38.27"/><path class="cls-10" d="M58.43,143.35c6.69-6,22.26-8.6,37.39-8.62,11.85,0,26.32,3.15,33.16,9.11"/><path class="cls-10" d="M61.49,166.77l.7.52c18.91,14,45.54,12.13,65.5-.51"/><path class="cls-10" d="M356.52,255.82c-4.49,3.7-6.53,11.36-6.81,15.43,0,.33,0,.63,0,.91,0,2.81,28.87,24.72,41.75,29l8-44.78a1.66,1.66,0,0,1,1.11-1.21,2.2,2.2,0,0,1,.37-.07,1.68,1.68,0,0,1,1.56.72c8.73,12.38,19.17,26.48,29.57,37.49,12.05-14.45,24.11-37,28.24-51.53a1.32,1.32,0,0,0-.23-.94c-1.61-2.88-10.37-9.28-15.27-10.07h0"/><path class="cls-10" d="M278.76,305.66c23-17.2,42.25-27.32,70.92-34.41"/><path class="cls-10" d="M460.32,240.72c17.77,0,35.24,2.57,53.37,4.41"/><path class="cls-10" d="M144.21,299.86h0c6.06,10.46,11.37,17.29,20.36,27.6h0"/><path class="cls-10" d="M186.83,245.9h0c11.41,16.65,24.76,32.11,37.37,47.85l.48.59"/><path class="cls-10" d="M140.19,199.63c4.43,7.43,10.4,19.45,15.08,29.45,1.44,3.07,2.75,5.94,3.86,8.44"/><path class="cls-10" d="M1084.6,101.16c1.63-1.27,3.22-2.52,4.72-3.73,3.13-2.53,6.6-3.52,10.37-.69,4.59,3.44,5.1,6.06,2.11,9.12a.13.13,0,0,0,.16.21c2-1.16,3.51-2.29,6-2.75,3.55-.67,6.4,3.42,7.19,5.58s-.63,4.19-3.44,7a.93.93,0,0,0,.65,1.58,8.14,8.14,0,0,1,6.5,3.06c1.71,2.3-1.87,6.19-4.24,8.69a.35.35,0,0,0,.41.56c4.5-2,8.75.15,6.37,5.39-1.21,2.67-5.7,7-7.94,8.91-4.33,3.67-8.68,7.36-13.24,10.73a96.85,96.85,0,0,1-10,6.55,6.73,6.73,0,0,1-1.44.62,2,2,0,0,1-2.27-3.13c3.36-4.26,6.83-8.29,10.42-12.2,3-3.35,6.2-6.61,9.43-9.86a1.16,1.16,0,0,0-1.5-1.76c-2.8,2-6,4.63-9.19,7.2s-6.32,5.09-9,7c-3.33,2.41-7.72,5.53-11.53,5a2.37,2.37,0,0,1-2-3.12c1-3.06,4.39-6.15,6.53-8.27,5.56-5.51,13.45-13.72,19-19.23-10.16,6.81-31.58,24.36-38,27.14-1.38.6-3.15.64-4.11-.52-1.43-1.75.24-3.73,1.61-5.2,10.63-11.37,24.06-22.59,34.9-32.95-5,3.43-18.88,11.89-24.39,14.32a3.82,3.82,0,0,1-4.67-5.7c2.36-3.29,9.71-10.2,10.58-11.07A111.29,111.29,0,0,1,1084.6,101.16Z"/><path class="cls-10" d="M981.15,151.41c1,5.78,2.6,11.52,5.67,16.42,8.44,13.48,27.24,17.46,41,10.27s24.36-23.87,21.85-39.79c-3.21-20.34-24.33-33.25-41.67-29.91C988.94,112.07,978.24,134,981.15,151.41Z"/><path class="cls-10" d="M993.79,134.83c-2.87,8.84-2.42,19,3.69,26.45s18.8,10.8,27.45,5.71a23.05,23.05,0,0,0,8.19-9,25.9,25.9,0,0,0,3.45-10C1038.67,126.78,1002.27,108.65,993.79,134.83Z"/><path class="cls-10" d="M985.79,199.39c29.28-7.2,56.81-14.41,85.19-22.22,10.42-2.86,21-5.81,31.75-8.87-.07-1.7-2.73-10.28-2.52-13.5"/><path class="cls-10" d="M1084.6,101.16c-.59-7.51-1.18-11.77-1.77-19.28-47.06,9.62-69.46,14-99.26,21.68-5.58,1.42-11.41,3-17.72,4.67l-8.3,2.27s3.76,16.73,8.24,37.38c3.83,17.69,8.19,38.25,11.18,53.67l8.82-2.15"/><path class="cls-10" d="M772.73,244.52c5,14.4,14.61,26.92,26,37l.9.78a162.14,162.14,0,0,0,26.11,18.11c8.71,5,18.72,4.13,28.53,3.05q3.68-.4,7.32-1.06a110.5,110.5,0,0,0,49.13-22"/><path class="cls-10" d="M778.83,240.64a25.23,25.23,0,0,1-6.24,3.39,6.14,6.14,0,0,1-.73.22c-2.54.64-5.51.27-7.36-1.6a10.07,10.07,0,0,1-2.28-4.88,113.16,113.16,0,0,1-3-20.46c-.5-11.76.64-30.51,5.54-31.64.92-.21,3.48.81,3.86,1.06,5.12,3.35,4.7,4.9,7.61,10.29a10.84,10.84,0,0,0,6.11,3.64c.93.21,1.8,12.09,2.56,12.66,2.74,2,11.46-4.89,10.52-7.37-.74-2-3.37-6.79-2.2-8.44,1.82-2.57,3.44-6.56,6.54-5.95,2.18.43,3.15,3.08,5.09,4.18,3.53,2,7.54-2,9.15-5.69s3.29-8.41,7.3-9.11c5.78-1,11.65,7.35,16.3,3.78,2-1.56,2.14-4.49,2.53-7,.55-3.54,2.76-7.49,6.34-7.56,2.76,0,4.93,2.23,7.45,3.35,3.93,1.75,8.68.51,12.16-2s6-6.19,8.35-9.76c-.74,6.68-.54,15.17,5.59,18,1.82.83,4,1,5.55,2.19,3,2.28,2.58,6.83,2.11,10.58s-.07,8.56,3.47,9.9c3,1.15,6.5-1.19,9.65-.37,3.35.87,4.85,4.91,4.68,8.36s-1.45,6.82-1.36,10.28,2.31,7.33,5.76,7.43c2.65.08,5.1-2.07,7.69-1.57,1.55,2.41.75,5.54.54,8.39s.91,6.47,3.76,6.74,5.52-3.42,8.34-2.47a79.89,79.89,0,0,0,9.87.38c2-.13,4.36,0,5.19,1.77a4.28,4.28,0,0,1-.22,3.32c-1.26,3.21-3.53,5.89-5.77,8.51l-21.11,24.73c-1.33,1.56-3,3.25-5,3.19a3.79,3.79,0,0,1-2.21-.82,11.13,11.13,0,0,1-2.92-4"/><path class="cls-11" d="M775.19,211c-1.44-3.25-3.1-6.74-6.27-8.34a1.3,1.3,0,0,0-1-.17c-.5.19-.55.84-.63,1.37-1.54,9.72.9,30.16,2.2,30.49a2.66,2.66,0,0,0,2.26-.48,21,21,0,0,0,6-6.92"/><path class="cls-11" d="M921.53,250.34c4.34-4.3,10-3.6,8.37,0-2,4.41-4.65,7.27-7.34,11.29-7.58,11.35-15.7,11.65-11.31,2.79"/><path class="cls-10" d="M796.51,290.38a.63.63,0,0,0,.13-.36v0"/><path class="cls-10" d="M877.6,135.87a11.4,11.4,0,0,0-10.84-10.64c-1.67,0-3.5.3-4.87-.65-1.53-1.07-1.73-3.19-2.17-5a14.58,14.58,0,0,0-14.57-10.8c-5.41.33-11.34,3.61-15.83.57-3.08-2.08-4.07-6.47-7.31-8.3-6.39-3.62-14.59,5.65-21.11,2.28-2.21-1.14-3.55-3.51-5.67-4.81-4.07-2.51-9.34-.36-13.41,2.14s-8.55,5.47-13.22,4.46c-3.81-.82-7-4.23-10.85-4-4.2.27-6.85,4.62-8.15,8.62s-2.22,8.52-5.56,11.08c-5.55,4.25-13.48.33-20.47.72a4.61,4.61,0,0,0-2.74.84c-3.2,2.7,2.67,7.73,1.42,11.73-2.58,2.07-6.25,2-9.51,1.4s-6.6-1.47-9.8-.67-6.09,4.14-5,7.25c.87,2.39,3.66,3.65,4.58,6,1.63,4.25-3.93,8-8.47,7.66s-8.78-2.88-13.33-2.67a11.37,11.37,0,0,0-8.24,18.61c1.12,1.35,2.64,2.61,2.77,4.37.18,2.43-2.44,4.14-4.83,4.63s-5,.4-7,1.78c-3.07,2.11-2.85,7.51.38,9.37,2.82,1.63,6.62.56,9.45,2.18,4.54,2.6,3.32,9.33,1.78,14.32s-1.72,12.15,3.3,13.61c3.79,1.11,7.84-2.29,11.62-1.16,4.88,1.46,4.83,8.31,3.74,13.28s-1.17,11.81,3.69,13.31c5.52,1.69,12.25-5.86,16.35-1.81a6.34,6.34,0,0,1,1.49,2.8c1.14,3.89.72,8.07,1.48,12.05s3.38,8.19,7.41,8.58c4.63.45,9.33-4.25,13.45-2.08,5.1,2.69,1.86,11.79,6.37,15.39,5.83,4.66,15.22-6,21.19-1.52,3.27,2.45,3.55,8.54,7.6,9.11,2.7.38,5-2.26,7.76-2.22,2,0,3.72,1.51,5.62,2.23s9.3,1.89,10.41.46"/><path class="cls-10" d="M799.48,282.55c-1,2.43-1.92,4.92-2.84,7.47a2.6,2.6,0,0,0-.13.36h0c-3.18,8.7-6.11,18-8.48,26.84q-.82,3.07-1.55,6.07"/><path class="cls-10" d="M861.7,302.92c-.84,2.42-1.75,4.95-2.69,7.56-2.73,7.62-5.76,15.84-8.49,23.44-.89,2.49-1.75,4.92-2.56,7.24"/><path class="cls-10" d="M853.57,335.84c-.89-.69-1.91-1.28-2.7-1.8"/><path class="cls-10" d="M787.65,317.13a9.73,9.73,0,0,0-1.47-.22,9.11,9.11,0,0,0-2.61.1,2.59,2.59,0,0,0-2.17,1.51c-.59,1.9,1.46,3.5,3.23,4.4l1.62.82A185.66,185.66,0,0,0,847.87,342c1.25.14,2.5.27,3.76.39a4.86,4.86,0,0,0,2.57-.23c1.53-.74,1.84-2.94,1.08-4.47a5.61,5.61,0,0,0-1.65-1.82"/><path class="cls-10" d="M878.86,136.39a26.46,26.46,0,0,1,7.13-6.62,5.8,5.8,0,0,1,3.54-1.16c2,.21,3.26,2.11,4.74,3.45a9.85,9.85,0,0,0,11.65.86c2.08-1.38,3.57-3.53,5.94-4.54a5,5,0,0,1,2-.42c3.27,0,3.64,3.07,5.41,4.75,3.46,3.28,9.41-.34,12.18-3.72a14.08,14.08,0,0,1,4.3-3.69c7.52-3.94,11,3.14,12.14,7.91a15.12,15.12,0,0,0,3.08,6.24c1.72,2,3.72,3.31,5.54,2.29a3.08,3.08,0,0,1,3.14.2c2.41,1.52,3.48,9.11,6.13,5.94"/><path class="cls-10" d="M1071,177.17c-4.8,6-29,40.62-42.51,60.46-3,4.39-5.48,8.05-7.11,10.52-16.67,25.17-32.14,51.12-48.83,76.28-4.4,6.63-8.38,12.14-12,18a117,117,0,0,0-8,14.91"/><path class="cls-10" d="M961.33,342.92c.33.69-1,0-.75-.45a.71.71,0,0,1,.12-.13c.67-.49,1.57.08,2.37.3,4.14,1.16,7.46-7.24,11-4.74a13,13,0,0,1,1.77,2.23c1.69,1.9,4.91,1.61,6.92.07s3.13-4,4.17-6.28c1-.63,2.38.14,3.05,1.14a32,32,0,0,0,1.76,3.14c1.86,2.2,5.64,1.57,7.67-.47s2.82-5,3.64-7.74,1.92-5.67,4.29-7.31c4-2.78,9.37-.74,14.18,0a5.9,5.9,0,0,0,3-.12c2.45-.94,3-4.22,2.5-6.81s-1.44-5.3-.51-7.76a2.14,2.14,0,0,1,1.51-1.5,3,3,0,0,1,1.46.33,10.62,10.62,0,0,0,12-3.71,11.81,11.81,0,0,0,.4-12.72c-1.64-2.74-4.37-4.89-5.22-8a2.78,2.78,0,0,1,.93-3.22,7.44,7.44,0,0,1,3.63-.76,6.94,6.94,0,0,0,3.61-.83c1.64-1.11,2-3.37,1.89-5.35-.23-2.9-1.55-6-4.22-7.17-1.72-.76-3.72-.62-5.47-1.29a6.37,6.37,0,0,1-4-6.36c.14-1.59,2.73-7.54,2.49-9.11a3.4,3.4,0,0,0-3.13-3c-1,0-2.1.59-2.84,0-.37-.32-1.11-5.7-1.09-7.61v0"/><path class="cls-10" d="M787.41,316.86l-1.23.05-2.61.1c-4.17.17-7.74.49-10.81,2.34a6.44,6.44,0,0,0-2.24,2.61c-.83,1.7-.91,3.73,1.14,4.91,28.6,16.44,61.51,26.52,94.49,26.94,1.77,0,3.75-.06,4.7-1.95a3.87,3.87,0,0,0,.19-2.8c-.68-2.25-2.6-3.58-4.45-4.84-3.85-2.62-8.73-5.6-13-8.34l-.06,0c-.94-.62-1.85-1.22-2.7-1.8"/><path class="cls-10" d="M728.66,331.22a174.73,174.73,0,0,1,41.54-9.42"/><path class="cls-10" d="M871,349.06c3.59,2.22,15.25,9.3,22.7,13.89l19.42-34.42C940,281,985.19,200.76,985.79,199.4h0"/><path class="cls-10" d="M1083.64,445.49a5.73,5.73,0,0,1-.69.5c-4.79,3.08-25.8,11.79-27.23,13.67-3.1,4.07-4.42,9.17-5.72,14.11q-11.13,42.56-26.32,83.9a.59.59,0,0,0,.36.77.61.61,0,0,0,.42,0c4.77-2,24.76-12,25.17-11.77"/><path class="cls-10" d="M1074.31,484.43c1.27-10.17,1.92-20.95,2.41-30.26a2.07,2.07,0,0,0-3.87-1.11c-2.78,5-3.36,15.61-5.55,23.1-2.92,10-4.66,20.33-7.39,30.4,1.76-14.75,4.76-34,4.68-40.61,0-2.59-1.46-2.07-2.71-1.81-2.46.51-3.54,3.24-4,5.77-3.24,17.86-8.42,35.64-11.2,53.58q-.71,4.54-1,9.14a21.33,21.33,0,0,0,.49,7.4,23,23,0,0,0,2.84,5.64c.2.32.41.64.63,1,4.17,6.32,11.36,14.78,15.86,20.4"/><path class="cls-10" d="M1074.31,484.43c-.78,4.68-1.53,9.38-2.32,14.11C1072.94,494.14,1073.7,489.36,1074.31,484.43Z"/><path class="cls-10" d="M1080.59,498.19l.15-1.18,0-.23,5.79-45a37,37,0,0,0,.44-7.56,1.51,1.51,0,0,0-2.78-.67,15.33,15.33,0,0,0-.88,1.59q-.21.4-.39.81a36.7,36.7,0,0,0-1.94,5.66c-2.9,10.76-4.87,21.7-6.7,32.78"/><path class="cls-10" d="M1082.68,540.42c0-23.6,5.83-49.51,10-77,.3-2-2.57-2.88-3.9-1.4-1,1.16-6.35,22.27-8,34.78"/><path class="cls-10" d="M960.47,467c.79-7-.33-14.55-3.55-19.07-5-7.06-20.66-12.65-28.43-8.79-4.65,2.3-9.16,8.92-11.93,15.41-1.75,4.08-2.81,8.11-2.79,11,.05,6.61,3.87,12.9,9.31,16.64a28.61,28.61,0,0,0,18.9,4.41c5-.5,10.17-2.27,13.47-6.09C958.17,477.32,959.87,472.31,960.47,467Z"/><path class="cls-10" d="M1020.64,473.88c-6.58-5.82-16.94-7.26-28.88-1.44a22.34,22.34,0,0,0-8.26,6.89,18.82,18.82,0,0,0-3.82,12.42c.44,5.85,4,11.35,9,15.08a34.75,34.75,0,0,0,18,6.22c5,.37,10.34-.23,14.32-3a15.61,15.61,0,0,0,5.86-8.42,31.33,31.33,0,0,0,1.29-7.71C1028.58,485.53,1025.74,478.39,1020.64,473.88Z"/><path class="cls-10" d="M960.72,467c7.69-.6,18.92,5.17,22.42,12"/><path class="cls-11" d="M902.69,439.57c-.2-1-.43-2.22-.71-3.47s-.59-2.57-1-3.9c-1.23-4.19-3.18-8.4-6.54-10.47-8.68-5.35-16.46,17.26-18.29,21.62a114.62,114.62,0,0,0-5.49,16.55c-1.08,4.3-3.35,10.56,2.69,13,4.25,1.73,10,.52,14.58-1.38a30.47,30.47,0,0,0,3.88-1.94"/><path class="cls-10" d="M901.24,432.13c15.18.67,29.69,3,48,.43,15.21-2.14,46.53-20.87,49.68-22.77,1.06,10,3.39,26.53,6.14,36.26s9.46,18,16.63,25.16c.38.38.79.76,1.22,1.15,6.06,5.39,16.46,10.93,18.08,12.24a.66.66,0,0,1,.21.21"/><path class="cls-10" d="M1003.32,390.17h0c-.43-.57-14.34-18.61-24.45-24.89-7.49-4.66-16.89-7.19-26.43-7.8a67.84,67.84,0,0,0-26.07,3.26c-14.24,4.94-23.73,14.53-32.06,26.59-5.2,7.54-12,14.37-17.85,21.41l-18,21.57c-9.54,11.42-19.37,23.09-32.34,30.39-6,3.39-19.93,4.77-26.38,2.24-4.79-1.88,20,28.07,33.72,42,11.94,12.14,24.58,22.85,40.34,27.74a60.2,60.2,0,0,0,7.32,1.81"/><path class="cls-10" d="M887.93,471.3a1.85,1.85,0,0,0,0,.23c.35,9.73,22.68,42.62,30.09,49.12,11.89,10.41,22,18.64,36.86,22.39,9.46,2.38,26.56,1.55,41.76-.51,12.17-1.64,23.11-4.07,27.95-6.26"/><path class="cls-10" d="M1003.31,390.16c3.36-2.52,13.73-4.76,17.92-5,16-1.06,31.1,9.45,41.79,19.71,8.29,8,20.68,23.7,18.65,38.35"/><path class="cls-10" d="M918,520.65c-3.18,7.77-6,15.53-9,22.77q-.93,2.28-1.87,4.48c11.16,11.44,23.88,18.16,39,20.75s25.56,2.21,40.74,2h.64c.78-2.71,1.67-5.62,2.61-8.61,2.07-6.62,4.39-13.6,6.51-19.47h0"/><path class="cls-10" d="M908.31,543.12c-2.54-.77-6.62-1.6-9.31-.76a3.71,3.71,0,0,0-2.31,1.77c-1,2-.2,4.45.8,6.47,5.62,11.45,16.14,20,27.84,25.08s24.56,6.94,37.3,7.48a115.06,115.06,0,0,0,18.19-.49c3.9-.46,8.63-2.57,10.9-5.79a11,11,0,0,0,2-6.75,13.88,13.88,0,0,0-3.07-8"/><path class="cls-10" d="M1148.12,654.24l1,.51.91.45.42.21"/><path class="cls-10" d="M1135,647.06c4.49,2.54,8.39,4.7,11.47,6.33"/><path class="cls-10" d="M993.69,570.13c12.53,6,31.39,15.09,43.92,21.07,14,6.65,66.55,38.33,96,55.07"/><path class="cls-10" d="M875,699.43h0c50.89,1,114.68-1.26,162.27,1,68.27,3.26,128.91.86,197.22-1.11,11.42-.33,21.11-2.33,31.37-4.78a12.75,12.75,0,0,0,8-18.81c-5.24-9.1-13.93-15.9-23.67-23.12-50.83-37.67-157.88-111.37-157.88-111.37-2.53-2.33-6.5-2.32-9.64-.83a9.41,9.41,0,0,0-1.17.64c-3.27,2.08-5.42,5.49-7.35,8.85-3.18,5.56-6,11.29-8.66,17.13-3.71,8.23-7,16.66-10.16,25.11a1.55,1.55,0,0,0,.53,1.79c6.55,4.83,46.11,33.82,77.76,52.33l1.38.79c4,2.32,7.84,4.45,11.47,6.33.55.3,1.1.58,1.64.85l1,.51.91.45,1.92.93"/><path class="cls-10" d="M804,549.55q21.6-7.81,43.74-14.07c6-1.68,12-3.29,18.2-3.41a42.21,42.21,0,0,1,7.85.63,59.24,59.24,0,0,1,7.32,1.81,154.39,154.39,0,0,1,17.72,7.17"/><path class="cls-10" d="M821.61,279.15c.48,3.68,6,5.52,8.77,3.8,1.08-.68,24.63-21.24,36.08-31.1a1.14,1.14,0,0,0-.66-2c-12.08-.89-47.48-18.65-49.29-16.27C815.11,235.42,821.3,276.86,821.61,279.15Z"/><path class="cls-10" d="M859,310.48c2.56-2.49,6.8-.46,7.72,3,.8,3-1.08,6.64.81,9.1,1.62,2.11,5,1.76,7.23.33s3.87-3.66,6.1-5.11,5.57-1.86,7.25.2c1.47,1.82.87,4.48.54,6.8s.11,5.32,2.35,6,4.2-1.51,4.94-3.65.85-4.58,2.24-6.37,4.84-2.09,5.5.07a7.42,7.42,0,0,1,.15,1.7,5.74,5.74,0,0,0,7.26,4.85"/><path class="cls-11" d="M894.79,441.52a9,9,0,0,0-1.13-3.62,3.81,3.81,0,0,0-3.44-1.8c-1.9.21-2.86,2.07-3.45,3.69a108.6,108.6,0,0,0-5.67,23.15,1.17,1.17,0,0,0,.07.74c.33.61,1.35.45,2,.12a8,8,0,0,0,3-2.72"/><path class="cls-10" d="M981.64,512.56a.64.64,0,0,1,.18,1.2c-8.25,5.16-26.91,9.33-29.09,8.83-.62-.14-1.05-.87-1.24-1.28-3-6.41-4.89-14.9-6.58-21.65a.62.62,0,0,1,1-.61c3.78,3.47,9.18,8,14.82,10C965.63,510.76,977,511.84,981.64,512.56Z"/><path class="cls-10" d="M1024,558.47c-1.91.35-4.07-1.12-5-1.89a1,1,0,0,1-.36-1.08c.31-1.24,2.69-8.8,6-19.23h0c3.47-11,8-25.13,12.17-38.44,1.44-4.56,2.84-9,4.16-13.23,1.75-5.6,3.34-10.73,4.65-15s2.15-9.17,5.23-12.58a25.58,25.58,0,0,1,6.24-4.6q6.29-3.69,12.87-6.83a21.53,21.53,0,0,1,7-2.34,8.11,8.11,0,0,1,6.45,1.95l.3.31"/><path class="cls-10" d="M1095.84,142.43a7.19,7.19,0,0,1,.94,4.06"/><path class="cls-11" d="M515,337.61c-.76-1.6-3.35-1.36-4.44,0s-1.07,3.34-.94,5.11c.67,9,3.26,18.14,8.69,25.4.53.71,1.42,1.47,2.18,1,.17-.8.33-1.59.49-2.39"/><path class="cls-11" d="M678.07,338.69a1.28,1.28,0,0,1,1.62-1.06,2.09,2.09,0,0,1,1.34,1.64,6,6,0,0,1-.14,2.22,103.87,103.87,0,0,1-7.14,22.56,1.34,1.34,0,0,1-1.73-.88,3.87,3.87,0,0,1,.09-2.18"/><path class="cls-10" d="M261.31,350.82c0-.29,2.39,16.08,3.62,24.34.51,3.38,1.51,7.39,4.75,8.49a6.36,6.36,0,0,0,5.5-1.07,18.69,18.69,0,0,0,4-4.2c1.16-1.51,2.59-2.74,3.74-4.24h0"/><path class="cls-10" d="M439,218.31h0c.54,4.58,1.09,8.63,1.76,12.74.45,2.8.95,5.63,1.52,8.69.05.22.09.43.13.65"/><path class="cls-11" d="M314.33,189.64c-.37-.77-1.67-.46-2,.32a3.35,3.35,0,0,0,.26,2.47c2.59,6.81,5.45,13.62,9.86,19.42a6.75,6.75,0,0,0,2.58,2.32"/><path class="cls-11" d="M463.38,165.85a1.14,1.14,0,0,1,1.5-.83,42.47,42.47,0,0,1-1.06,10.09q-1.23,6.54-2.45,13.09"/><path class="cls-12" d="M372.47,172.17c-.66-.25-1.11.41-1.21.61-.48.86-.08,2.48.18,3.54.51,2.08,2.57,2,2.45-.16a11.87,11.87,0,0,0-.29-2.31c-.08-.31-.36-1.09-.36-1.09A1.19,1.19,0,0,0,372.47,172.17Z"/><path class="cls-12" d="M206.44,399.08c-.65-.25-1.1.41-1.21.61-.47.86-.07,2.48.19,3.53.51,2.08,2.57,2,2.45-.15a11.87,11.87,0,0,0-.29-2.31c-.08-.31-.36-1.09-.36-1.09A1.18,1.18,0,0,0,206.44,399.08Z"/><path class="cls-12" d="M228,397.64c-.66-.25-1.1.41-1.21.61-.47.86-.07,2.48.19,3.54.51,2.07,2.57,1.95,2.45-.16a12.69,12.69,0,0,0-.29-2.31c-.09-.31-.36-1.09-.36-1.09A1.18,1.18,0,0,0,228,397.64Z"/><path class="cls-12" d="M866.85,217.77c-.65-.25-1.1.41-1.21.61-.47.86-.07,2.48.19,3.53.51,2.08,2.57,2,2.45-.16a11.87,11.87,0,0,0-.29-2.3c-.09-.31-.36-1.09-.36-1.09A1.15,1.15,0,0,0,866.85,217.77Z"/><path class="cls-12" d="M848,210.22c-.66-.24-1.1.42-1.21.61-.48.87-.07,2.49.19,3.54.51,2.08,2.57,1.95,2.45-.16a11.88,11.88,0,0,0-.3-2.3c-.08-.32-.35-1.1-.35-1.1A1.21,1.21,0,0,0,848,210.22Z"/><path class="cls-12" d="M394.34,170.93c-.65-.24-1.1.41-1.21.61-.47.86-.07,2.49.19,3.54.51,2.08,2.57,1.95,2.45-.16a11.87,11.87,0,0,0-.29-2.3c-.09-.32-.36-1.1-.36-1.1A1.18,1.18,0,0,0,394.34,170.93Z"/><path class="cls-11" d="M924,459.26c3.61-1.27,10.35-1.37,17.09,2.17,6.06,3.19,8,8.93,9.16,10.6"/><path class="cls-11" d="M992.25,489.33a20.9,20.9,0,0,1,14.79,1.06c4,2,7.94,5.86,9.08,9.35"/><path class="cls-10" d="M916.1,454.34c-.69-.33-12.13-16.1-14-18.26"/><path class="cls-10" d="M1026.83,501.66c2.63-1.51,6.81-2.78,9.94-3.83"/><path class="cls-10" d="M154.93,229.46c.1-.12.21-.25.34-.38a68.78,68.78,0,0,1,12-9.18l.26-.13"/><path class="cls-10" d="M120,249.76l.25.27q3.81,4.07,7.57,8.17c1.86,2,3.7,4,5.53,6.07"/><path class="cls-10" d="M116.88,274.31c.5-3.19,9.59-15.78,10.38-15.64"/><path class="cls-10" d="M281.14,701.85l.37-.09c1.3-.32,2.76-.73,4.33-1.23,16.09-5,44.48-18,48.36-19.77"/><path class="cls-10" d="M248.27,344.18c-6.62-6.62-11.63-12.23-21.69-16.7s-21.89-3.65-32.9-3.57c-6,0-12.15.91-17.11,4.25A15.91,15.91,0,0,0,169.06,341"/><path class="cls-10" d="M261.31,350.82a24.9,24.9,0,0,1-15.64.51c-4.79-1.43-8-3.25-12.67-5.92,0,0-8.66-8.76-13.93-10.91a45.16,45.16,0,0,0-16.73-2.94c-6.37,0-13.08.9-18.17,4.73s-7.4,12.18-4.41,17.81a3.48,3.48,0,0,1,.08,2.91,3.16,3.16,0,0,1-2.21,1.78"/><path class="cls-10" d="M301.14,413.53c-2.14-1-4.83-2.49-6.33-4.34"/><path class="cls-10" d="M401,256.17a1419.77,1419.77,0,0,1,28.58,142c.15,1,.3,2,.44,2.95"/><path class="cls-10" d="M169.06,340.51c-1.9,7,5.55,18.21,7.92,18.56h0"/><path class="cls-10" d="M128.21,157.8h0c-13.05,10.8-54,14.86-66.92,1.65a92.91,92.91,0,0,1,25.92-6.86,86.07,86.07,0,0,1,11-.58,82.36,82.36,0,0,1,30,5.78h0"/><path class="cls-10" d="M1060,106.68a94.58,94.58,0,0,1,20.24-5.43l-3.18-10.38c-.15-.48-.37-1-.87-1.16a1.55,1.55,0,0,0-.79.1L1065.53,93c-2.74.88-5.91.76-8.36,1.53C1057.7,98.61,1059,102.7,1060,106.68Z"/><path class="cls-13" d="M999.94,150.21a15.13,15.13,0,0,1,11.31-20.09"/><path class="cls-10" d="M965.81,108.1c-.41-1.87-.81-3.74-1.22-5.61a1,1,0,0,1,.89-1.44l15.45-4a1,1,0,0,1,.8,0,1,1,0,0,1,.33.61c.5,1.93,1,3.86,1.49,5.79"/><path class="cls-10" d="M308.71,174.07a18.18,18.18,0,0,1,5.13.79"/><path class="cls-10" d="M310.27,165.26l4.33,1.17"/><path class="cls-10" d="M312.32,158.63a20.1,20.1,0,0,1,3.81,2.14"/><path class="cls-10" d="M314.88,153.45a8.64,8.64,0,0,1,4.27,2"/><path class="cls-10" d="M318,146.29a30.7,30.7,0,0,1,4.06,3.92"/><path class="cls-10" d="M322.66,140.81a9,9,0,0,1,3.2,3"/><path class="cls-10" d="M328.74,134a28.25,28.25,0,0,1,3.44,4.56"/><path class="cls-10" d="M336.05,130.09a22.12,22.12,0,0,1,2.41,4.72"/><path class="cls-10" d="M343.72,127.56l2,4.37"/><path class="cls-10" d="M442,144.4a9.37,9.37,0,0,0,3.51-3"/><path class="cls-10" d="M446.64,148l4.58-2.15"/><path class="cls-10" d="M451.56,153.9a37.62,37.62,0,0,1,4.75-2.79"/><path class="cls-10" d="M455.13,158a33.47,33.47,0,0,0,3.81-2.89"/><image width="1050" height="884" transform="translate(549.72 656.97) scale(0.1)" xlink:href="../Downloads/Na%CC%88ringslivsgruppen%20-%20Logga%20(1).png"/></svg>